<?xml version="1.0" encoding="UTF-8" standalone="no"?>
<!-- Created with Inkscape (http://www.inkscape.org/) -->

<svg
   xmlns:rendltx="http://NOTSET"
   xmlns:dc="http://purl.org/dc/elements/1.1/"
   xmlns:cc="http://creativecommons.org/ns#"
   xmlns:rdf="http://www.w3.org/1999/02/22-rdf-syntax-ns#"
   xmlns:svg="http://www.w3.org/2000/svg"
   xmlns="http://www.w3.org/2000/svg"
   xmlns:xlink="http://www.w3.org/1999/xlink"
   xmlns:sodipodi="http://sodipodi.sourceforge.net/DTD/sodipodi-0.dtd"
   xmlns:inkscape="http://www.inkscape.org/namespaces/inkscape"
   id="svg8"
   version="1.1"
   viewBox="0 0 210 297"
   height="297mm"
   width="210mm"
   inkscape:version="0.92.4 (5da689c313, 2019-01-14)"
   sodipodi:docname="drawing.svg">
  <defs
     id="defs2">
    <inkscape:path-effect
       effect="spiro"
       id="path-effect1802"
       is_visible="true" />
    <inkscape:path-effect
       effect="simplify"
       id="path-effect1800"
       is_visible="true"
       steps="1"
       threshold="0.0107558"
       smooth_angles="360"
       helper_size="0"
       simplify_individual_paths="false"
       simplify_just_coalesce="false"
       simplifyindividualpaths="false"
       simplifyJustCoalesce="false" />
    <inkscape:path-effect
       effect="spiro"
       id="path-effect1784"
       is_visible="true" />
    <inkscape:path-effect
       effect="simplify"
       id="path-effect1782"
       is_visible="true"
       steps="1"
       threshold="0.5"
       smooth_angles="360"
       helper_size="0"
       simplify_individual_paths="false"
       simplify_just_coalesce="false"
       simplifyindividualpaths="false"
       simplifyJustCoalesce="false" />
    <inkscape:path-effect
       effect="spiro"
       id="path-effect1754"
       is_visible="true" />
    <inkscape:path-effect
       effect="simplify"
       id="path-effect1752"
       is_visible="true"
       steps="1"
       threshold="0.0093627"
       smooth_angles="360"
       helper_size="0"
       simplify_individual_paths="false"
       simplify_just_coalesce="false"
       simplifyindividualpaths="false"
       simplifyJustCoalesce="false" />
    <inkscape:path-effect
       effect="spiro"
       id="path-effect1254"
       is_visible="true" />
    <inkscape:path-effect
       effect="simplify"
       id="path-effect1252"
       is_visible="true"
       steps="1"
       threshold="0.5"
       smooth_angles="360"
       helper_size="0"
       simplify_individual_paths="false"
       simplify_just_coalesce="false"
       simplifyindividualpaths="false"
       simplifyJustCoalesce="false" />
    <inkscape:path-effect
       effect="spiro"
       id="path-effect1210"
       is_visible="true" />
    <inkscape:path-effect
       effect="simplify"
       id="path-effect1208"
       is_visible="true"
       steps="1"
       threshold="0.0093627"
       smooth_angles="360"
       helper_size="0"
       simplify_individual_paths="false"
       simplify_just_coalesce="false"
       simplifyindividualpaths="false"
       simplifyJustCoalesce="false" />
  </defs>
  <sodipodi:namedview
     id="base"
     pagecolor="#ffffff"
     bordercolor="#666666"
     borderopacity="1.0"
     inkscape:pageopacity="0.0"
     inkscape:pageshadow="2"
     inkscape:zoom="5.6568543"
     inkscape:cx="291.23878"
     inkscape:cy="770.36645"
     inkscape:document-units="mm"
     inkscape:current-layer="layer3"
     showgrid="false"
     inkscape:window-width="1920"
     inkscape:window-height="1001"
     inkscape:window-x="-9"
     inkscape:window-y="-9"
     inkscape:window-maximized="1" />
  <metadata
     id="metadata5">
    <rdf:RDF>
      <cc:Work
         rdf:about="">
        <dc:format>image/svg+xml</dc:format>
        <dc:type
           rdf:resource="http://purl.org/dc/dcmitype/StillImage" />
        <dc:title />
      </cc:Work>
    </rdf:RDF>
  </metadata>
  <g
     style="display:inline"
     rendltx:math="False"
     rendltx:newline="False"
     rendltx:fontsize="10"
     rendltx:depth="0"
     rendltx:scale="1.0"
     rendltx:packages="amsmath,amssymb"
     rendltx:preamble="C:\Users\Cameron\Desktop\mathpreamble.tex"
     id="ltx-render-layer"
     inkscape:groupmode="layer"
     inkscape:label="Back">
    <g
       transform="matrix(0.352778,0,0,0.352778,106.68377,77.868294)"
       id="lx-text824">
      <defs
         id="defs840">
        <g
           id="g838">
          <symbol
             style="overflow:visible"
             overflow="visible"
             id="lx-text824-glyph0-0">
            <path
               inkscape:connector-curvature="0"
               style="stroke:none"
               d=""
               id="path832" />
          </symbol>
          <symbol
             style="overflow:visible"
             overflow="visible"
             id="lx-text824-glyph0-1">
            <path
               inkscape:connector-curvature="0"
               style="stroke:none"
               d="M 5.21875,-1.859375 C 5.265625,-2.078125 5.296875,-2.296875 5.296875,-2.5 5.296875,-2.890625 5.1875,-3.265625 5,-3.5625 4.875,-3.734375 4.734375,-3.890625 4.5625,-4 4.671875,-4.0625 4.765625,-4.109375 4.859375,-4.203125 5.265625,-4.5 5.5625,-4.90625 5.671875,-5.359375 c 0.03125,-0.125 0.046875,-0.25 0.046875,-0.359375 0,-0.3125 -0.109375,-0.59375 -0.28125,-0.828125 C 5.15625,-6.859375 4.75,-7.03125 4.28125,-7.03125 c -1.203125,0 -2.109375,1.359375 -2.453125,2.71875 l -1.53125,6.125 c 0,0.078125 0.046875,0.125 0.109375,0.125 H 0.453125 C 0.5,1.9375 0.53125,1.90625 0.546875,1.859375 L 1.21875,-0.875 c 0.171875,0.578125 0.640625,0.984375 1.3125,0.984375 0.5625,0 1.171875,-0.1875 1.703125,-0.5625 0.46875,-0.359375 0.84375,-0.875 0.984375,-1.40625 z M 4.5625,-1.90625 c -0.125,0.453125 -0.34375,0.921875 -0.734375,1.28125 -0.375,0.328125 -0.84375,0.515625 -1.28125,0.515625 -0.71875,0 -1.125,-0.546875 -1.125,-1.25 0,-0.171875 0.015625,-0.328125 0.046875,-0.5 l 0.609375,-2.40625 c 0.3125,-1.25 1.09375,-2.546875 2.1875,-2.546875 0.34375,0 0.625,0.140625 0.78125,0.40625 0.09375,0.140625 0.109375,0.3125 0.109375,0.5 0,0.171875 -0.015625,0.328125 -0.0625,0.5 C 5,-5.03125 4.828125,-4.640625 4.515625,-4.359375 4.4375,-4.28125 4.34375,-4.21875 4.25,-4.171875 4.0625,-4.25 3.828125,-4.296875 3.59375,-4.296875 c -0.359375,0 -0.78125,0 -0.859375,0.265625 0,0.03125 0,0.078125 0,0.078125 0,0.234375 0.40625,0.234375 0.75,0.234375 0.25,0 0.5,-0.046875 0.75,-0.125 0.125,0.09375 0.234375,0.21875 0.296875,0.390625 0.109375,0.203125 0.140625,0.4375 0.140625,0.6875 C 4.671875,-2.5 4.625,-2.1875 4.5625,-1.90625 Z M 3.9375,-4.015625 C 3.78125,-3.96875 3.640625,-3.9375 3.5,-3.9375 c -0.21875,0 -0.53125,0 -0.515625,-0.046875 C 3.015625,-4.0625 3.34375,-4.0625 3.578125,-4.0625 c 0.125,0 0.25,0.015625 0.359375,0.046875 z m 0,0"
               id="path835" />
          </symbol>
        </g>
      </defs>
      <g
         id="lx-text824-surface1">
        <g
           style="fill:#000000;fill-opacity:1"
           id="g844" />
      </g>
    </g>
    <circle
       r="0.42094952"
       cy="97.002205"
       cx="69.737305"
       id="path1003"
       style="opacity:1;vector-effect:none;fill:#000000;fill-opacity:1;fill-rule:evenodd;stroke:#000000;stroke-width:0.26458332;stroke-linecap:butt;stroke-linejoin:miter;stroke-miterlimit:4;stroke-dasharray:none;stroke-dashoffset:0;stroke-opacity:1" />
    <circle
       r="0.51449382"
       cy="97.142517"
       cx="85.546295"
       id="path1007"
       style="opacity:1;vector-effect:none;fill:none;fill-opacity:1;fill-rule:evenodd;stroke:#000000;stroke-width:0.26458332;stroke-linecap:butt;stroke-linejoin:miter;stroke-miterlimit:4;stroke-dasharray:none;stroke-dashoffset:0;stroke-opacity:1" />
    <circle
       r="0.51449382"
       cy="97.002213"
       cx="98.268326"
       id="path1007-3"
       style="opacity:1;vector-effect:none;fill:none;fill-opacity:1;fill-rule:evenodd;stroke:#000000;stroke-width:0.26458332;stroke-linecap:butt;stroke-linejoin:miter;stroke-miterlimit:4;stroke-dasharray:none;stroke-dashoffset:0;stroke-opacity:1" />
    <circle
       r="0.51449382"
       cy="93.494308"
       cx="103.46003"
       id="path1007-2"
       style="opacity:1;vector-effect:none;fill:#000000;fill-opacity:1;fill-rule:evenodd;stroke:#000000;stroke-width:0.26458332;stroke-linecap:butt;stroke-linejoin:miter;stroke-miterlimit:4;stroke-dasharray:none;stroke-dashoffset:0;stroke-opacity:1" />
    <path
       inkscape:original-d="M 86.171483,97.189963 97.713931,97.074208"
       inkscape:path-effect="#path-effect1782;#path-effect1784"
       inkscape:connector-curvature="0"
       id="path1780"
       d="M 86.171483,97.189963 97.713931,97.074208"
       style="fill:none;stroke:#000000;stroke-width:0.26458332px;stroke-linecap:butt;stroke-linejoin:miter;stroke-opacity:1" />
    <path
       inkscape:original-d="m 70.164192,97.2065 c 0.03106,-0.05717 0.306528,-0.116959 0.314193,-0.132292 0.0049,-0.0099 -0.0078,-0.02527 0,-0.03307 0.0227,-0.0227 0.131826,-0.02725 0.165364,-0.04961 0.09486,-0.06323 0.207513,-0.116292 0.28112,-0.165365 0.01839,-0.01225 0.02225,-0.05703 0.04961,-0.06615 0.129183,-0.04306 0.383593,-0.332899 0.529167,-0.429948 0.136607,-0.09107 -0.03606,0.003 0.01654,-0.04961 0.0096,-0.0096 0.05599,-0.01783 0.06615,-0.03307 0.0765,-0.114755 0.209217,-0.249719 0.330729,-0.330729 0.03464,-0.0231 0.258363,-0.318288 0.28112,-0.363802 0.0066,-0.0132 0.03191,-0.01064 0.04961,-0.01654 0.02676,-0.0089 0.02731,-0.04887 0.03307,-0.06615 0.0082,-0.02461 0.1133,-0.103092 0.132292,-0.115755 0.09226,-0.0615 0.148619,-0.148617 0.214974,-0.214974 0.09168,-0.09168 0.591352,-0.296334 0.744141,-0.347266 0.05215,-0.01738 0.154829,-0.004 0.198437,-0.03307 0.0092,-0.0061 -0.0049,-0.0232 0,-0.03307 0.0077,-0.01543 0.275506,-0.03838 0.28112,-0.04961 0.04243,-0.08485 0.26326,-0.03175 0.314193,-0.08268 0.08836,-0.08836 0.415774,-0.04016 0.479557,-0.08268 0.229944,-0.153294 1.389094,-0.0083 1.570963,0.08268 0.260147,0.130074 0.635405,0.354287 0.859896,0.578776 0.06444,0.06444 0.112586,0.145661 0.181901,0.214974 0.08539,0.08539 0.173498,0.132024 0.231511,0.248046 0.0038,0.0075 0.118224,0.09219 0.132291,0.09922 0.01617,0.0081 0.425091,0.519451 0.446485,0.56224 0.01106,0.02212 0.07079,0.01394 0.08268,0.04961 0.0392,0.117607 0.223163,0.256236 0.297656,0.330729 0.0176,0.0176 0.03512,0.09402 0.04961,0.115755 0.02273,0.03409 0.09081,0.08675 0.115755,0.09922 0.0508,0.0254 0.160912,0.239141 0.198437,0.314193 0.02191,0.04379 0.101495,0.101494 0.132292,0.132292 0.03713,0.03713 0.082,0.164682 0.132292,0.214974 0.14587,0.145872 0.224763,0.300701 0.314192,0.479557 0.0071,0.01413 0.03305,0.0083 0.04961,0.01654 0.0037,0.0019 0.08827,0.137883 0.09922,0.148828 0.06662,0.06662 0.151407,0.260186 0.198437,0.33073 0.06691,0.100367 0.246671,0.279744 0.314193,0.347265 0.05105,0.05105 0.197562,0.08093 0.23151,0.148828 0.0029,0.0058 0.481232,0.08324 0.529167,0.09922 0.0787,0.02625 0.171691,-0.0089 0.248047,0.01654 0.08551,0.0285 0.188962,0.01654 0.28112,0.01654 0.08392,0 0.273759,0.03675 0.347265,0 0.07037,-0.03518 0.359995,-0.06234 0.396875,-0.09922 0.0078,-0.0078 -0.0049,-0.0232 0,-0.03307 0.01251,-0.02506 0.137663,-0.01921 0.165365,-0.03307 0.0217,-0.01085 0.02005,-0.0236 0.03307,-0.04961 0.005,-0.0099 0.07178,-0.0056 0.08268,-0.01654 0.09915,-0.09915 0.244372,-0.128617 0.347266,-0.231511 0.04898,-0.04898 0.15862,-0.07256 0.198437,-0.132292 0.08735,-0.131021 0.369081,-0.275137 0.413411,-0.363802 0.01066,-0.0213 0.102034,-0.02217 0.115756,-0.04961 0.0083,-0.01656 0.0024,-0.04255 0.01654,-0.04961 0.07099,-0.03549 0.1793,-0.07748 0.214974,-0.148828 0.0093,-0.01855 0.08276,-0.01662 0.09922,-0.03307 0.01103,-0.01103 0.0055,-0.03858 0.01654,-0.04961 0.0083,-0.0083 0.04134,0.0083 0.04961,0 0.05059,-0.05059 0.135495,-0.100819 0.198437,-0.132291 0.01479,-0.0074 0.04221,0.01479 0.04961,0 0.01455,-0.02913 -0.0013,-0.03179 0.01654,-0.04961 0.02756,-0.02756 0.10473,-0.0055 0.132292,-0.03307 0.01577,-0.01577 0.02932,-0.056 0.04961,-0.06615 0.120838,-0.06042 0.624517,-0.256844 0.644922,-0.297656"
       inkscape:path-effect="#path-effect1800;#path-effect1802"
       inkscape:connector-curvature="0"
       id="path1798"
       d="m 70.164192,97.2065 c 0.491074,-0.235276 0.947589,-0.542534 1.350429,-0.908905 0.491232,-0.446761 0.906923,-0.983678 1.462665,-1.347073 0.58126,-0.380081 1.291948,-0.545767 1.985188,-0.504009 0.79436,0.04785 1.561499,0.360851 2.203086,0.831662 0.633463,0.46485 1.148695,1.078869 1.552964,1.752611 0.18852,0.314182 0.353995,0.641993 0.54958,0.951826 0.195586,0.309834 0.424478,0.604445 0.716727,0.825445 0.285161,0.21564 0.62672,0.355802 0.981021,0.403637 0.354302,0.04784 0.720542,0.0033 1.053457,-0.126983 0.54372,-0.21285 0.972354,-0.635864 1.4402,-0.98523 0.450147,-0.336149 0.946981,-0.609685 1.471755,-0.810285"
       style="fill:none;stroke:#000000;stroke-width:0.26458332px;stroke-linecap:butt;stroke-linejoin:miter;stroke-opacity:1" />
    <rect
       y="85.309158"
       x="66.089073"
       height="20.53298"
       width="26.940769"
       id="rect1810"
       style="opacity:1;fill:none;fill-opacity:1;stroke:#000000;stroke-width:0.1;stroke-miterlimit:4;stroke-dasharray:none" />
    <g
       id="lx-text1044"
       transform="matrix(0.352778,0,0,0.352778,84.610848,95.973217)">
      <defs
         id="defs954">
        <g
           id="g952">
          <symbol
             id="lx-text1044-glyph0-0"
             overflow="visible">
            <path
               id="path946"
               d=""
               style="stroke:none;" />
          </symbol>
          <symbol
             id="lx-text1044-glyph0-1"
             overflow="visible">
            <path
               id="path949"
               d="M 5.40625 -1.421875 C 5.40625 -1.53125 5.328125 -1.53125 5.296875 -1.53125 C 5.1875 -1.53125 5.1875 -1.484375 5.15625 -1.34375 C 5.015625 -0.78125 4.828125 -0.109375 4.40625 -0.109375 C 4.203125 -0.109375 4.09375 -0.234375 4.09375 -0.5625 C 4.09375 -0.78125 4.21875 -1.25 4.296875 -1.609375 L 4.578125 -2.6875 C 4.609375 -2.828125 4.703125 -3.203125 4.75 -3.359375 C 4.796875 -3.59375 4.890625 -3.96875 4.890625 -4.03125 C 4.890625 -4.203125 4.75 -4.296875 4.609375 -4.296875 C 4.5625 -4.296875 4.296875 -4.28125 4.21875 -3.953125 L 3.46875 -0.953125 C 3.453125 -0.90625 3.0625 -0.109375 2.328125 -0.109375 C 1.8125 -0.109375 1.71875 -0.5625 1.71875 -0.921875 C 1.71875 -1.484375 2 -2.265625 2.25 -2.953125 C 2.375 -3.265625 2.421875 -3.40625 2.421875 -3.59375 C 2.421875 -4.03125 2.109375 -4.40625 1.609375 -4.40625 C 0.65625 -4.40625 0.296875 -2.953125 0.296875 -2.875 C 0.296875 -2.765625 0.40625 -2.765625 0.40625 -2.765625 C 0.515625 -2.765625 0.515625 -2.796875 0.5625 -2.953125 C 0.8125 -3.8125 1.203125 -4.1875 1.578125 -4.1875 C 1.671875 -4.1875 1.828125 -4.171875 1.828125 -3.859375 C 1.828125 -3.625 1.71875 -3.328125 1.65625 -3.1875 C 1.28125 -2.1875 1.078125 -1.578125 1.078125 -1.09375 C 1.078125 -0.140625 1.765625 0.109375 2.296875 0.109375 C 2.953125 0.109375 3.3125 -0.34375 3.484375 -0.5625 C 3.59375 -0.15625 3.953125 0.109375 4.375 0.109375 C 4.71875 0.109375 4.953125 -0.125 5.109375 -0.4375 C 5.28125 -0.796875 5.40625 -1.421875 5.40625 -1.421875 Z M 5.40625 -1.421875 "
               style="stroke:none;" />
          </symbol>
        </g>
      </defs>
      <g
         id="lx-text1044-surface1">
        <g
           id="g958"
           style="fill:rgb(0%,0%,0%);fill-opacity:1;">
          <use
             id="use956"
             y="0.0"
             x="0.0"
             xlink:href="#lx-text1044-glyph0-1" />
        </g>
      </g>
    </g>
    <g
       id="lx-text1040"
       transform="matrix(0.352778,0,0,0.352778,68.895397,96.01999)">
      <defs
         id="defs970">
        <g
           id="g968">
          <symbol
             id="lx-text1040-glyph0-0"
             overflow="visible">
            <path
               id="path962"
               d=""
               style="stroke:none;" />
          </symbol>
          <symbol
             id="lx-text1040-glyph0-1"
             overflow="visible">
            <path
               id="path965"
               d="M 3.953125 -1.546875 C 3.953125 -1.90625 3.765625 -2.15625 3.640625 -2.265625 C 3.375 -2.546875 3.078125 -2.609375 2.640625 -2.6875 C 2.28125 -2.765625 1.890625 -2.84375 1.890625 -3.296875 C 1.890625 -3.578125 2.125 -4.1875 3 -4.1875 C 3.25 -4.1875 3.75 -4.109375 3.890625 -3.734375 C 3.625 -3.71875 3.421875 -3.5 3.421875 -3.28125 C 3.421875 -3.140625 3.515625 -2.984375 3.734375 -2.984375 C 3.953125 -2.984375 4.1875 -3.15625 4.1875 -3.546875 C 4.1875 -4 3.765625 -4.40625 3 -4.40625 C 1.6875 -4.40625 1.3125 -3.390625 1.3125 -2.953125 C 1.3125 -2.171875 2.046875 -2.03125 2.34375 -1.96875 C 2.859375 -1.859375 3.375 -1.75 3.375 -1.203125 C 3.375 -0.953125 3.15625 -0.109375 1.953125 -0.109375 C 1.8125 -0.109375 1.046875 -0.109375 0.8125 -0.640625 C 1.203125 -0.59375 1.453125 -0.890625 1.453125 -1.171875 C 1.453125 -1.390625 1.28125 -1.515625 1.078125 -1.515625 C 0.8125 -1.515625 0.515625 -1.3125 0.515625 -0.859375 C 0.515625 -0.296875 1.09375 0.109375 1.9375 0.109375 C 3.5625 0.109375 3.953125 -1.09375 3.953125 -1.546875 Z M 3.953125 -1.546875 "
               style="stroke:none;" />
          </symbol>
        </g>
      </defs>
      <g
         id="lx-text1040-surface1">
        <g
           id="g974"
           style="fill:rgb(0%,0%,0%);fill-opacity:1;">
          <use
             id="use972"
             y="0.0"
             x="0.0"
             xlink:href="#lx-text1040-glyph0-1" />
        </g>
      </g>
    </g>
    <g
       id="lx-text993"
       transform="matrix(0.352778,0,0,0.352778,74.760116,93.592805)">
      <defs
         id="defs986">
        <g
           id="g984">
          <symbol
             id="lx-text993-glyph0-0"
             overflow="visible">
            <path
               id="path978"
               d=""
               style="stroke:none;" />
          </symbol>
          <symbol
             id="lx-text993-glyph0-1"
             overflow="visible">
            <path
               id="path981"
               d="M 6.46875 0 C 6.46875 -0.0625 6.40625 -0.09375 6.359375 -0.09375 C 6.28125 -0.09375 6.265625 -0.046875 6.234375 0.015625 C 6 0.71875 5.421875 0.96875 5.078125 0.96875 C 4.609375 0.96875 4.46875 0.703125 4.359375 -0.0625 C 5.90625 -0.640625 7.375 -2.421875 7.375 -4.34375 C 7.375 -5.953125 6.3125 -7.03125 4.828125 -7.03125 C 2.6875 -7.03125 0.484375 -4.765625 0.484375 -2.4375 C 0.484375 -0.78125 1.609375 0.21875 3.046875 0.21875 C 3.296875 0.21875 3.625 0.171875 4.015625 0.0625 C 3.984375 0.6875 3.984375 0.703125 3.984375 0.84375 C 3.984375 1.15625 3.984375 1.9375 4.8125 1.9375 C 5.984375 1.9375 6.46875 0.109375 6.46875 0 Z M 6.5 -4.671875 C 6.5 -3.671875 5.984375 -1.328125 4.3125 -0.40625 C 4.265625 -0.75 4.171875 -1.46875 3.4375 -1.46875 C 2.90625 -1.46875 2.421875 -0.984375 2.421875 -0.453125 C 2.421875 -0.265625 2.484375 -0.140625 2.484375 -0.140625 C 1.703125 -0.453125 1.359375 -1.21875 1.359375 -2.125 C 1.359375 -2.8125 1.625 -4.234375 2.375 -5.296875 C 3.109375 -6.3125 4.046875 -6.78125 4.78125 -6.78125 C 5.765625 -6.78125 6.5 -6 6.5 -4.671875 Z M 4.046875 -0.40625 C 4.046875 -0.265625 4.03125 -0.25 3.9375 -0.203125 C 3.671875 -0.09375 3.375 -0.03125 3.09375 -0.03125 C 2.953125 -0.03125 2.640625 -0.03125 2.640625 -0.453125 C 2.640625 -0.859375 3.015625 -1.25 3.4375 -1.25 C 3.859375 -1.25 4.046875 -1.015625 4.046875 -0.40625 Z M 4.046875 -0.40625 "
               style="stroke:none;" />
          </symbol>
        </g>
      </defs>
      <g
         id="lx-text993-surface1">
        <g
           id="g990"
           style="fill:rgb(0%,0%,0%);fill-opacity:1;">
          <use
             id="use988"
             y="0.0"
             x="0.0"
             xlink:href="#lx-text993-glyph0-1" />
        </g>
      </g>
    </g>
    <g
       id="lx-text987"
       transform="matrix(0.352778,0,0,0.352778,66.229391,84.747895)">
      <defs
         id="defs1002">
        <g
           id="g1000">
          <symbol
             id="lx-text987-glyph0-0"
             overflow="visible">
            <path
               id="path994"
               d=""
               style="stroke:none;" />
          </symbol>
          <symbol
             id="lx-text987-glyph0-1"
             overflow="visible">
            <path
               id="path997"
               d="M 7.578125 -6.703125 C 7.578125 -6.703125 7.578125 -6.8125 7.453125 -6.8125 C 7.125 -6.8125 6.765625 -6.78125 6.4375 -6.78125 C 6.09375 -6.78125 5.71875 -6.8125 5.390625 -6.8125 C 5.328125 -6.8125 5.21875 -6.8125 5.21875 -6.609375 C 5.21875 -6.5 5.3125 -6.5 5.390625 -6.5 C 5.96875 -6.484375 6.078125 -6.28125 6.078125 -6.0625 C 6.078125 -6.03125 6.046875 -5.875 6.046875 -5.859375 L 5.140625 -2.296875 C 4.8125 -0.953125 3.65625 -0.09375 2.65625 -0.09375 C 1.984375 -0.09375 1.453125 -0.53125 1.453125 -1.390625 C 1.453125 -1.390625 1.453125 -1.71875 1.5625 -2.15625 L 2.515625 -6.046875 C 2.609375 -6.40625 2.625 -6.5 3.359375 -6.5 C 3.625 -6.5 3.703125 -6.5 3.703125 -6.703125 C 3.703125 -6.8125 3.59375 -6.8125 3.5625 -6.8125 L 2.28125 -6.78125 L 1 -6.8125 C 0.921875 -6.8125 0.8125 -6.8125 0.8125 -6.609375 C 0.8125 -6.5 0.890625 -6.5 1.09375 -6.5 C 1.09375 -6.5 1.296875 -6.5 1.46875 -6.484375 C 1.640625 -6.453125 1.734375 -6.453125 1.734375 -6.3125 C 1.734375 -6.265625 1.625 -5.84375 1.5625 -5.609375 L 1.34375 -4.734375 L 0.734375 -2.265625 C 0.671875 -2 0.671875 -1.84375 0.671875 -1.6875 C 0.671875 -0.484375 1.578125 0.21875 2.625 0.21875 C 3.875 0.21875 5.109375 -0.90625 5.4375 -2.21875 L 6.328125 -5.765625 C 6.4375 -6.171875 6.609375 -6.46875 7.40625 -6.5 C 7.453125 -6.5 7.578125 -6.515625 7.578125 -6.703125 Z M 7.578125 -6.703125 "
               style="stroke:none;" />
          </symbol>
        </g>
      </defs>
      <g
         id="lx-text987-surface1">
        <g
           id="g1006"
           style="fill:rgb(0%,0%,0%);fill-opacity:1;">
          <use
             id="use1004"
             y="0.0"
             x="0.0"
             xlink:href="#lx-text987-glyph0-1" />
        </g>
      </g>
    </g>
    <g
       id="lx-text1258"
       transform="matrix(0.352778,0,0,0.352778,97.192564,95.786129)">
      <defs
         id="defs1024">
        <g
           id="g1022">
          <symbol
             id="lx-text1258-glyph0-0"
             overflow="visible">
            <path
               id="path1010"
               d=""
               style="stroke:none;" />
          </symbol>
          <symbol
             id="lx-text1258-glyph0-1"
             overflow="visible">
            <path
               id="path1013"
               d="M 5.40625 -1.421875 C 5.40625 -1.53125 5.328125 -1.53125 5.296875 -1.53125 C 5.1875 -1.53125 5.1875 -1.484375 5.15625 -1.34375 C 5.015625 -0.78125 4.828125 -0.109375 4.40625 -0.109375 C 4.203125 -0.109375 4.09375 -0.234375 4.09375 -0.5625 C 4.09375 -0.78125 4.21875 -1.25 4.296875 -1.609375 L 4.578125 -2.6875 C 4.609375 -2.828125 4.703125 -3.203125 4.75 -3.359375 C 4.796875 -3.59375 4.890625 -3.96875 4.890625 -4.03125 C 4.890625 -4.203125 4.75 -4.296875 4.609375 -4.296875 C 4.5625 -4.296875 4.296875 -4.28125 4.21875 -3.953125 L 3.46875 -0.953125 C 3.453125 -0.90625 3.0625 -0.109375 2.328125 -0.109375 C 1.8125 -0.109375 1.71875 -0.5625 1.71875 -0.921875 C 1.71875 -1.484375 2 -2.265625 2.25 -2.953125 C 2.375 -3.265625 2.421875 -3.40625 2.421875 -3.59375 C 2.421875 -4.03125 2.109375 -4.40625 1.609375 -4.40625 C 0.65625 -4.40625 0.296875 -2.953125 0.296875 -2.875 C 0.296875 -2.765625 0.40625 -2.765625 0.40625 -2.765625 C 0.515625 -2.765625 0.515625 -2.796875 0.5625 -2.953125 C 0.8125 -3.8125 1.203125 -4.1875 1.578125 -4.1875 C 1.671875 -4.1875 1.828125 -4.171875 1.828125 -3.859375 C 1.828125 -3.625 1.71875 -3.328125 1.65625 -3.1875 C 1.28125 -2.1875 1.078125 -1.578125 1.078125 -1.09375 C 1.078125 -0.140625 1.765625 0.109375 2.296875 0.109375 C 2.953125 0.109375 3.3125 -0.34375 3.484375 -0.5625 C 3.59375 -0.15625 3.953125 0.109375 4.375 0.109375 C 4.71875 0.109375 4.953125 -0.125 5.109375 -0.4375 C 5.28125 -0.796875 5.40625 -1.421875 5.40625 -1.421875 Z M 5.40625 -1.421875 "
               style="stroke:none;" />
          </symbol>
          <symbol
             id="lx-text1258-glyph1-0"
             overflow="visible">
            <path
               id="path1016"
               d=""
               style="stroke:none;" />
          </symbol>
          <symbol
             id="lx-text1258-glyph1-1"
             overflow="visible">
            <path
               id="path1019"
               d="M 2.078125 -3.515625 C 2.078125 -3.734375 1.890625 -3.890625 1.671875 -3.890625 C 1.390625 -3.890625 1.328125 -3.671875 1.296875 -3.578125 L 0.375 -0.5625 L 0.328125 -0.4375 C 0.328125 -0.359375 0.546875 -0.28125 0.609375 -0.28125 C 0.65625 -0.28125 0.6875 -0.328125 0.703125 -0.390625 L 2.03125 -3.296875 C 2.0625 -3.359375 2.078125 -3.421875 2.078125 -3.515625 Z M 2.078125 -3.515625 "
               style="stroke:none;" />
          </symbol>
        </g>
      </defs>
      <g
         id="lx-text1258-surface1">
        <g
           id="g1028"
           style="fill:rgb(0%,0%,0%);fill-opacity:1;">
          <use
             id="use1026"
             y="0.0"
             x="0.0"
             xlink:href="#lx-text1258-glyph0-1" />
        </g>
        <g
           id="g1032"
           style="fill:rgb(0%,0%,0%);fill-opacity:1;">
          <use
             id="use1030"
             y="-3.615"
             x="5.703"
             xlink:href="#lx-text1258-glyph1-1" />
        </g>
      </g>
    </g>
    <g
       id="lx-text1262"
       transform="matrix(0.352778,0,0,0.352778,102.89876,92.371761)">
      <defs
         id="defs1044">
        <g
           id="g1042">
          <symbol
             id="lx-text1262-glyph0-0"
             overflow="visible">
            <path
               id="path1036"
               d=""
               style="stroke:none;" />
          </symbol>
          <symbol
             id="lx-text1262-glyph0-1"
             overflow="visible">
            <path
               id="path1039"
               d="M 3.125 -1.421875 C 3.125 -1.53125 3.046875 -1.53125 3.015625 -1.53125 C 2.921875 -1.53125 2.90625 -1.5 2.859375 -1.390625 C 2.4375 -0.34375 1.90625 -0.109375 1.5625 -0.109375 C 1.359375 -0.109375 1.25 -0.234375 1.25 -0.5625 C 1.25 -0.8125 1.28125 -0.875 1.3125 -1.046875 L 2.046875 -3.984375 L 2.984375 -3.984375 C 3.1875 -3.984375 3.296875 -3.984375 3.296875 -4.1875 C 3.296875 -4.296875 3.1875 -4.296875 3.015625 -4.296875 L 2.140625 -4.296875 C 2.5 -5.71875 2.546875 -5.90625 2.546875 -5.96875 C 2.546875 -6.140625 2.421875 -6.234375 2.25 -6.234375 C 2.21875 -6.234375 1.9375 -6.234375 1.859375 -5.875 L 1.46875 -4.296875 L 0.53125 -4.296875 C 0.328125 -4.296875 0.234375 -4.296875 0.234375 -4.109375 C 0.234375 -3.984375 0.3125 -3.984375 0.515625 -3.984375 L 1.390625 -3.984375 C 0.671875 -1.15625 0.625 -0.984375 0.625 -0.8125 C 0.625 -0.265625 1 0.109375 1.546875 0.109375 C 2.5625 0.109375 3.125 -1.34375 3.125 -1.421875 Z M 3.125 -1.421875 "
               style="stroke:none;" />
          </symbol>
        </g>
      </defs>
      <g
         id="lx-text1262-surface1">
        <g
           id="g1048"
           style="fill:rgb(0%,0%,0%);fill-opacity:1;">
          <use
             id="use1046"
             y="0.0"
             x="0.0"
             xlink:href="#lx-text1262-glyph0-1" />
        </g>
      </g>
    </g>
  </g>
  <g
     inkscape:groupmode="layer"
     id="layer3"
     inkscape:label="Latex"
     style="display:none">
    <text
       xml:space="preserve"
       style="font-style:normal;font-weight:normal;font-size:3.88055563px;line-height:1.25;font-family:sans-serif;letter-spacing:0px;word-spacing:0px;fill:#000000;fill-opacity:1;stroke:none;stroke-width:0.26458332"
       x="84.236671"
       y="96.019989"
       id="text1044"><tspan
         sodipodi:role="line"
         id="tspan1042"
         x="84.236671"
         y="96.019989"
         style="stroke-width:0.26458332">$u$</tspan></text>
    <text
       xml:space="preserve"
       style="font-style:normal;font-weight:normal;font-size:3.88055563px;line-height:1.25;font-family:sans-serif;letter-spacing:0px;word-spacing:0px;display:inline;fill:#000000;fill-opacity:1;stroke:none;stroke-width:0.26458332"
       x="66.790649"
       y="95.973221"
       id="text1040"><tspan
         sodipodi:role="line"
         id="tspan1038"
         x="66.790649"
         y="95.973221"
         style="stroke-width:0.26458332">$s$</tspan></text>
    <text
       xml:space="preserve"
       style="font-style:normal;font-weight:normal;font-size:3.88055563px;line-height:1.25;font-family:sans-serif;letter-spacing:0px;word-spacing:0px;display:inline;fill:#000000;fill-opacity:1;stroke:none;stroke-width:0.26458332"
       x="75.202873"
       y="91.955292"
       id="text993"><tspan
         sodipodi:role="line"
         id="tspan991"
         x="75.202873"
         y="91.955292"
         style="stroke-width:0.26458332">$Q$</tspan></text>
    <text
       xml:space="preserve"
       style="font-style:normal;font-weight:normal;font-size:3.88055563px;line-height:1.25;font-family:sans-serif;letter-spacing:0px;word-spacing:0px;display:inline;fill:#000000;fill-opacity:1;stroke:none;stroke-width:0.26458332"
       x="66.229393"
       y="84.79467"
       id="text987"><tspan
         sodipodi:role="line"
         id="tspan985"
         x="66.229393"
         y="84.79467"
         style="stroke-width:0.26458332">$U$</tspan></text>
    <text
       xml:space="preserve"
       style="font-style:normal;font-weight:normal;font-size:3.88055563px;line-height:1.25;font-family:sans-serif;letter-spacing:0px;word-spacing:0px;fill:#000000;fill-opacity:1;stroke:none;stroke-width:0.26458332"
       x="97.660286"
       y="95.832901"
       id="text1258"><tspan
         sodipodi:role="line"
         id="tspan1256"
         x="97.660286"
         y="95.832901"
         style="stroke-width:0.26458332">$u^\prime$</tspan></text>
    <text
       xml:space="preserve"
       style="font-style:normal;font-weight:normal;font-size:3.88055563px;line-height:1.25;font-family:sans-serif;letter-spacing:0px;word-spacing:0px;fill:#000000;fill-opacity:1;stroke:none;stroke-width:0.26458332"
       x="106.54699"
       y="89.378342"
       id="text1262"><tspan
         sodipodi:role="line"
         id="tspan1260"
         x="106.54699"
         y="89.378342"
         style="stroke-width:0.26458332">$t$</tspan></text>
  </g>
</svg>
