<?xml version="1.0" encoding="UTF-8" standalone="no"?>
<!-- Created with Inkscape (http://www.inkscape.org/) -->

<svg
   xmlns:dc="http://purl.org/dc/elements/1.1/"
   xmlns:cc="http://creativecommons.org/ns#"
   xmlns:rdf="http://www.w3.org/1999/02/22-rdf-syntax-ns#"
   xmlns:svg="http://www.w3.org/2000/svg"
   xmlns="http://www.w3.org/2000/svg"
   xmlns:sodipodi="http://sodipodi.sourceforge.net/DTD/sodipodi-0.dtd"
   xmlns:inkscape="http://www.inkscape.org/namespaces/inkscape"
   width="5.5in"
   height="5in"
   viewBox="0 0 139.7 127"
   version="1.1"
   id="svg8"
   inkscape:version="0.92.4 (5da689c313, 2019-01-14)"
   sodipodi:docname="directional.svg">
  <defs
     id="defs2" />
  <sodipodi:namedview
     id="base"
     pagecolor="#ffffff"
     bordercolor="#666666"
     borderopacity="1.0"
     inkscape:pageopacity="0.0"
     inkscape:pageshadow="2"
     inkscape:zoom="11.2"
     inkscape:cx="250.44369"
     inkscape:cy="321.12781"
     inkscape:document-units="mm"
     inkscape:current-layer="layer1"
     showgrid="false"
     inkscape:window-width="1920"
     inkscape:window-height="1001"
     inkscape:window-x="-9"
     inkscape:window-y="-9"
     inkscape:window-maximized="1"
     units="in"
     width="5.5in" />
  <metadata
     id="metadata5">
    <rdf:RDF>
      <cc:Work
         rdf:about="">
        <dc:format>image/svg+xml</dc:format>
        <dc:type
           rdf:resource="http://purl.org/dc/dcmitype/StillImage" />
        <dc:title />
      </cc:Work>
    </rdf:RDF>
  </metadata>
  <g
     inkscape:label="Layer 1"
     inkscape:groupmode="layer"
     id="layer1"
     transform="translate(0,-170)">
    <path
       style="fill:none;stroke:#000000;stroke-width:0.18602128px;stroke-linecap:butt;stroke-linejoin:miter;stroke-opacity:1"
       d="m 49.207988,235.97728 24.447014,-29.55147 -3.680197,51.3121 z"
       id="path18"
       inkscape:connector-curvature="0" />
    <text
       xml:space="preserve"
       style="font-style:normal;font-weight:normal;font-size:2.72831225px;line-height:1.25;font-family:sans-serif;letter-spacing:0px;word-spacing:0px;fill:#000000;fill-opacity:1;stroke:none;stroke-width:0.18602128"
       x="39.414082"
       y="234.39044"
       id="text22"
       transform="scale(0.9891866,1.0109316)"><tspan
         sodipodi:role="line"
         id="tspan20"
         x="39.414082"
         y="234.39044"
         style="stroke-width:0.18602128">$(a,b)$</tspan></text>
    <text
       xml:space="preserve"
       style="font-style:normal;font-weight:normal;font-size:2.72831225px;line-height:1.25;font-family:sans-serif;letter-spacing:0px;word-spacing:0px;fill:#000000;fill-opacity:1;stroke:none;stroke-width:0.18602128"
       x="-129.12526"
       y="186.52469"
       id="text26"
       transform="matrix(0.63583687,-0.77441856,0.75776088,0.64981433,0,0)"><tspan
         sodipodi:role="line"
         id="tspan24"
         x="-129.12526"
         y="186.52469"
         style="stroke-width:0.18602128">$\bm{\hat{u}}$</tspan></text>
    <text
       xml:space="preserve"
       style="font-style:normal;font-weight:normal;font-size:2.72831225px;line-height:1.25;font-family:sans-serif;letter-spacing:0px;word-spacing:0px;fill:#000000;fill-opacity:1;stroke:none;stroke-width:0.18602128"
       x="72.1922"
       y="202.96111"
       id="text30"
       transform="scale(0.9891866,1.0109316)"><tspan
         sodipodi:role="line"
         id="tspan28"
         x="72.1922"
         y="202.96111"
         style="stroke-width:0.18602128">$(x,y)$</tspan></text>
    <text
       xml:space="preserve"
       style="font-style:normal;font-weight:normal;font-size:2.72831225px;line-height:1.25;font-family:sans-serif;letter-spacing:0px;word-spacing:0px;fill:#000000;fill-opacity:1;stroke:none;stroke-width:0.18602128"
       x="68.019791"
       y="257.58362"
       id="text34"
       transform="scale(0.9891866,1.0109316)"><tspan
         sodipodi:role="line"
         id="tspan32"
         x="68.019791"
         y="257.58362"
         style="stroke-width:0.18602128">$(0,0)$</tspan></text>
    <text
       xml:space="preserve"
       style="font-style:normal;font-weight:normal;font-size:2.72831225px;line-height:1.25;font-family:sans-serif;letter-spacing:0px;word-spacing:0px;fill:#000000;fill-opacity:1;stroke:none;stroke-width:0.18602128"
       x="-130.15498"
       y="191.15608"
       id="text38"
       transform="matrix(0.63583687,-0.77441856,0.75776088,0.64981433,0,0)"><tspan
         sodipodi:role="line"
         id="tspan36"
         x="-130.15498"
         y="191.15608"
         style="stroke-width:0.18602128">$s\bm{\hat{u}}$</tspan></text>
    <path
       style="fill:none;stroke:#000000;stroke-width:0.18602128"
       id="path40"
       d="m 60.468298,221.71282 c 0.09639,-0.0591 0.201399,-0.10142 0.297748,-0.16034 0.01428,-0.01 0.0284,-0.0196 0.04283,-0.0289 0.01411,-0.009 0.02899,-0.0171 0.04283,-0.0267 0.05245,-0.0365 0.09858,-0.0811 0.142332,-0.12767 0.03593,-0.0276 0.06495,-0.066 0.103705,-0.0898 0.01527,-0.009 0.03161,-0.0168 0.04735,-0.0254 0.02503,-0.0119 0.047,-0.0365 0.07596,-0.0368 0.0039,0.003 0.0087,0.004 0.01166,0.008 0.01439,0.0173 0.0015,0.0542 -3.68e-4,0.0751 0.002,0.0281 -0.01166,0.0535 -0.01863,0.0799 -0.0054,0.0204 -0.0087,0.0414 -0.01328,0.062 -0.01279,0.0527 -0.0341,0.10267 -0.04855,0.1549 -0.0092,0.0333 -0.01566,0.0632 -0.0234,0.0969 -0.0038,0.0147 -0.0074,0.0294 -0.01122,0.0441 -0.0037,0.0143 -0.0085,0.0283 -0.01136,0.0429 -0.0029,0.0147 -0.0039,0.0297 -0.0058,0.0446 -0.0061,0.048 -0.009,0.0959 -0.01476,0.1439 -0.0078,0.0633 -0.01214,0.12758 -0.02392,0.19034 -0.02152,0.11474 -7.65e-4,-0.0198 -0.01743,0.0948 -0.0025,0.0159 -0.0044,0.0318 -0.0075,0.0476 -0.0027,0.014 -0.0071,0.0277 -0.0098,0.0417 -0.0095,0.0497 -0.01417,0.10014 -0.02325,0.14987 -0.0062,0.0242 -0.0056,0.0477 -0.0029,0.0721 3.68e-4,0.004 0.0045,0.01 0.0011,0.0108 -0.0042,0.001 -0.0067,-0.006 -0.01016,-0.009 0,0 0.01021,-0.005 0.01021,-0.005 v 0 c -0.0034,0.006 -0.0045,0.0149 -0.01025,0.0193 -0.0029,0.002 -7.65e-4,-0.007 -0.0011,-0.0107 -5.52e-4,-0.004 -0.0011,-0.008 -0.0017,-0.0123 -0.0019,-0.0204 3.68e-4,-0.0402 0.0045,-0.0603 0.0092,-0.0497 0.0138,-0.10026 0.02331,-0.14996 0.0026,-0.014 0.0071,-0.0276 0.0098,-0.0416 0.0031,-0.0157 0.0049,-0.0317 0.0075,-0.0476 0.01638,-0.11303 -0.0038,0.0181 0.01743,-0.0948 0.01182,-0.0628 0.01612,-0.12704 0.02394,-0.19032 0.0058,-0.048 0.0087,-0.0959 0.0147,-0.14388 0.0019,-0.0149 0.0028,-0.0299 0.0057,-0.0447 0.0029,-0.0146 0.0076,-0.0286 0.01137,-0.0429 0.0038,-0.0146 0.0075,-0.0293 0.01128,-0.0441 0.0076,-0.0332 0.01426,-0.0641 0.0233,-0.0969 0.01437,-0.0522 0.0357,-0.10207 0.0485,-0.15477 0.0046,-0.0207 0.0078,-0.0416 0.01316,-0.062 0.0069,-0.0263 0.02069,-0.0517 0.01866,-0.0796 5.51e-4,-0.006 5.51e-4,-0.0117 0.0015,-0.0174 0.0026,-0.0178 0.01317,-0.0403 -5.51e-4,-0.0565 -0.0029,-0.004 -0.0075,-0.005 -0.01131,-0.007 -0.0035,1.3e-4 -0.0072,7.1e-4 -0.01068,3.7e-4 -7.65e-4,-1e-4 3.68e-4,-0.002 -3.68e-4,-0.002 -0.02252,0.0113 -0.04155,0.0284 -0.06457,0.0389 -0.0091,0.005 -0.0191,0.008 -0.02793,0.0139 -0.03867,0.0242 -0.06807,0.0618 -0.103956,0.0897 -0.04371,0.0466 -0.08985,0.0915 -0.142295,0.12797 -0.01384,0.01 -0.02874,0.0176 -0.04286,0.0267 -0.01444,0.009 -0.02856,0.0193 -0.04285,0.029 -0.01864,0.0112 -0.03703,0.023 -0.05593,0.0338 -0.04346,0.0248 -0.04484,0.0222 -0.09145,0.046 -0.05055,0.0258 -0.100613,0.0529 -0.150265,0.0805 0,0 -0.01038,0.004 -0.01038,0.004 z"
       inkscape:connector-curvature="0" />
  </g>
</svg>
