<?xml version="1.0" encoding="UTF-8" standalone="no"?>
<!-- Created with Inkscape (http://www.inkscape.org/) -->

<svg
   xmlns:dc="http://purl.org/dc/elements/1.1/"
   xmlns:cc="http://creativecommons.org/ns#"
   xmlns:rdf="http://www.w3.org/1999/02/22-rdf-syntax-ns#"
   xmlns:svg="http://www.w3.org/2000/svg"
   xmlns="http://www.w3.org/2000/svg"
   xmlns:sodipodi="http://sodipodi.sourceforge.net/DTD/sodipodi-0.dtd"
   xmlns:inkscape="http://www.inkscape.org/namespaces/inkscape"
   width="5in"
   height="5in"
   viewBox="0 0 127 127"
   version="1.1"
   id="svg8"
   inkscape:version="0.92.4 (5da689c313, 2019-01-14)"
   sodipodi:docname="image.svg">
  <defs
     id="defs2">
    <inkscape:path-effect
       effect="bspline"
       id="path-effect4894"
       is_visible="true"
       weight="33.333333"
       steps="2"
       helper_size="0"
       apply_no_weight="true"
       apply_with_weight="true"
       only_selected="false" />
    <inkscape:path-effect
       effect="simplify"
       id="path-effect4892"
       is_visible="true"
       steps="1"
       threshold="0.00980583"
       smooth_angles="360"
       helper_size="0"
       simplify_individual_paths="false"
       simplify_just_coalesce="false"
       simplifyindividualpaths="false"
       simplifyJustCoalesce="false" />
  </defs>
  <sodipodi:namedview
     id="base"
     pagecolor="#ffffff"
     bordercolor="#666666"
     borderopacity="1.0"
     inkscape:pageopacity="0.0"
     inkscape:pageshadow="2"
     inkscape:zoom="22.4"
     inkscape:cx="150.58562"
     inkscape:cy="326.00379"
     inkscape:document-units="mm"
     inkscape:current-layer="layer1"
     showgrid="false"
     inkscape:window-width="1920"
     inkscape:window-height="1001"
     inkscape:window-x="-9"
     inkscape:window-y="-9"
     inkscape:window-maximized="1"
     showguides="false"
     units="in"
     width="4.5in" />
  <metadata
     id="metadata5">
    <rdf:RDF>
      <cc:Work
         rdf:about="">
        <dc:format>image/svg+xml</dc:format>
        <dc:type
           rdf:resource="http://purl.org/dc/dcmitype/StillImage" />
        <dc:title />
      </cc:Work>
    </rdf:RDF>
  </metadata>
  <g
     inkscape:label="Layer 1"
     inkscape:groupmode="layer"
     id="layer1"
     transform="translate(0,-170)">
    <text
       xml:space="preserve"
       style="font-style:normal;font-weight:normal;font-size:10.35869789px;line-height:1.25;font-family:sans-serif;letter-spacing:0px;word-spacing:0px;fill:#000000;fill-opacity:1;stroke:none;stroke-width:0.25896743"
       x="-60.268711"
       y="143.99992"
       id="text998"
       transform="matrix(0.73869056,-0.6421339,0.67028613,0.77107599,0,0)"><tspan
         sodipodi:role="line"
         id="tspan996"
         x="-60.268711"
         y="153.45049"
         style="font-size:4.23333311px;stroke-width:0.25896743" /></text>
    <path
       style="fill:none;stroke:#000000;stroke-width:0.99999994"
       d="m 81.875,99.017578 c -0.476578,0.01101 -0.954421,0.05571 -1.388672,0.115234 -0.564979,0.122835 -1.144375,0.181921 -1.703125,0.330079 -1.165621,0.309467 -2.178218,1.023359 -3.205078,1.621089 -0.998751,0.62408 -0.383884,0.25692 -1.871094,1.0586 -0.32417,0.2013 -0.613012,0.45361 -0.921875,0.67773 -1.020782,0.74049 -2.109401,1.37179 -3.095703,2.16016 -0.625761,0.56409 -1.263099,1.11034 -1.832031,1.73437 -1.284371,1.40875 -2.237957,3.07253 -3.322266,4.63086 -0.958949,1.33214 -1.958338,2.62469 -2.96875,3.91797 -0.466911,0.59762 -1.373573,1.745 -1.785156,2.36719 -0.269049,0.40675 -0.497325,0.84031 -0.746094,1.25976 -0.993872,1.93191 -2.015065,3.87458 -2.771484,5.91602 -0.190515,0.51413 -0.327128,1.04833 -0.517578,1.5625 -0.175881,0.47478 -0.388104,0.93467 -0.582032,1.40234 -0.33753,1.00714 -0.709824,2.00409 -1.021484,3.01954 -0.162814,0.53034 -0.274413,1.0752 -0.4375,1.60546 -0.493069,1.60305 -1.196189,3.14711 -1.435547,4.82227 -0.374642,1.71693 -0.797317,3.42801 -1.136719,5.15234 -0.327325,1.66296 -0.292734,1.69273 -0.517578,3.41211 -0.07404,0.56629 -0.150669,1.13125 -0.226562,1.69727 -0.393679,1.7955 -0.623507,3.3012 -0.791016,5.13476 -0.05409,0.59173 -0.138298,1.18171 -0.162109,1.77539 -0.02721,0.67382 0.01008,1.3491 0.0098,2.02344 -3.77e-4,0.64196 -0.0076,1.28387 -0.01172,1.92578 -0.08331,3.81559 -0.358043,7.64931 0.316406,11.4336 0.04207,0.53941 0.247232,3.32192 0.335938,3.90234 0.381112,2.49472 1.264814,4.89732 1.642578,7.39453 0.181969,0.56364 0.336292,1.13515 0.544922,1.68946 0.217799,0.57864 0.495218,1.1341 0.732421,1.70507 0.966562,2.32687 1.940426,4.65086 2.765625,7.03321 0.657049,1.6896 1.325455,3.37453 2.228516,4.95312 0.30675,0.53624 0.663659,1.04059 0.994141,1.5625 1.33604,2.11007 0.582245,1.01742 2.035156,2.98047 0.400789,0.50135 0.827376,0.98211 1.201172,1.50391 0.745629,1.04084 1.313763,2.20158 2.089843,3.22265 1.119258,1.55282 2.454173,2.93985 3.6875,4.39844 1.390942,1.31989 2.786032,2.68313 4.28125,3.88672 1.299459,1.04602 2.756981,1.88601 4.101563,2.86914 0.985209,0.72609 1.929946,1.50576 2.921875,2.22266 1.908669,1.37945 4.089839,2.31295 6.255859,3.20507 3.577879,1.05699 0.09813,0.0685 3.580079,0.94532 2.113409,0.53215 4.178452,1.33097 6.382812,1.40429 3.319363,-0.0185 6.6339,0.17734 9.95117,0.0957 2.27479,-0.24216 1.13664,-0.0965 3.41602,-0.43555 0.16677,-0.0185 3.19096,-0.24541 3.45508,-0.2832 1.10515,-0.15663 2.39602,-0.49432 3.48046,-0.75586 1.11018,-0.33011 2.20566,-0.7149 3.32618,-1.00782 0.60497,-0.15832 1.22532,-0.24883 1.83203,-0.40039 1.64944,-0.41178 3.22816,-1.03159 4.86914,-1.4707 1.06601,-0.35433 2.16071,-0.6342 3.19922,-1.0625 0.49039,-0.20228 0.94804,-0.47635 1.42187,-0.71484 1.45158,-0.73062 2.90039,-1.46392 4.35938,-2.17969 2.35771,-1.15053 4.82592,-2.20871 7.05273,-3.60547 0.4098,-0.25704 0.78539,-0.56652 1.17774,-0.84961 1.477,-1.22536 2.84856,-2.57787 4.33593,-3.78906 0.35812,-0.29159 0.76034,-0.52772 1.10938,-0.83008 0.3321,-0.28766 0.61842,-0.62336 0.92773,-0.93555 0.3541,-0.31237 0.72499,-0.60716 1.0625,-0.9375 0.66505,-0.65125 1.24706,-1.38387 1.90039,-2.04687 0.88555,-0.8987 1.80687,-1.72745 2.38086,-2.88281 0.60435,-1.04618 1.11181,-2.18196 1.77149,-3.19336 0.6805,-1.04338 1.57329,-1.95318 2.07226,-3.11524 0.22462,-0.508 0.89627,-2.00566 1.07617,-2.50195 0.61051,-1.68548 0.9866,-3.46102 1.48633,-5.17969 0.14242,-0.83743 0.24782,-1.68052 0.39258,-2.51758 0.28112,-1.62712 0.70545,-3.25192 0.6582,-4.91601 0.0246,-1.32628 0.0413,-2.64714 -0.0332,-3.97266 -0.004,-0.0786 -0.19739,-2.59301 -0.20117,-2.69922 -0.0151,-0.4467 0.005,-0.89486 0.008,-1.34179 -0.0469,-0.48439 -0.0628,-0.97271 -0.14062,-1.45313 -0.0711,-0.43725 -0.2068,-0.86097 -0.30469,-1.29297 -0.42856,-1.88953 -0.86842,-3.77491 -1.80469,-5.49414 -0.299,-0.76463 -0.5907,-1.62905 -1.03906,-2.33008 -0.97251,-1.52054 -2.48132,-2.63999 -3.31055,-4.26171 -0.63757,-1.08957 -1.21716,-2.2428 -1.94922,-3.27344 -0.8527,-1.20061 -1.92109,-2.20163 -3.02539,-3.16602 -0.76127,-0.62184 -1.55474,-1.20569 -2.28711,-1.86133 -0.38812,-0.34745 -0.74367,-0.7306 -1.11523,-1.0957 -0.33142,-0.34394 -0.64019,-0.71037 -0.99414,-1.03125 -0.37328,-0.33827 -0.79114,-0.62544 -1.1836,-0.9414 -0.36707,-0.29541 -0.73041,-0.59513 -1.0957,-0.89258 -1.26885,-0.98877 -2.59514,-1.91107 -3.97851,-2.73633 -0.73817,-0.44035 -2.01372,-1.03661 -2.75196,-1.45508 -0.42357,-0.24011 -0.82801,-0.5117 -1.24218,-0.76758 -0.97959,-0.52603 -1.86758,-1.02403 -2.88086,-1.48437 -1.82769,-0.83033 -3.76468,-1.44076 -5.69727,-1.9668 -1.34844,-0.447 -2.66331,-1.00609 -4.02344,-1.41602 -1.34171,-0.40433 -2.72735,-0.67503 -3.98437,-1.33203 -0.44283,-0.17193 -0.87806,-0.36368 -1.32813,-0.51562 -3.10237,-1.0481 0.69038,0.37499 -2.34179,-0.69141 -1.04369,-0.36707 -2.0643,-0.8232 -3.06641,-1.28906 -0.36757,-0.11906 -0.74583,-0.20662 -1.10156,-0.35742 -1.61829,-0.6861 -2.81686,-2.04141 -3.89844,-3.37305 -0.92321,-0.88218 -1.76594,-1.82201 -2.38867,-2.94922 -0.15624,-0.28282 -0.25957,-0.59216 -0.40039,-0.88281 -0.13129,-0.27103 -0.27558,-0.53319 -0.41407,-0.80078 -0.27073,-0.63927 -0.52694,-1.16982 -0.6875,-1.84961 -0.31697,-1.34211 -0.27492,-2.75763 -0.76562,-4.06641 -0.17993,-0.48147 -0.42852,-1.09229 -0.55664,-1.60351 -0.0916,-0.36552 -0.25979,-1.52853 -0.31641,-1.78516 -0.29085,-1.31837 -0.70315,-2.60851 -0.98242,-3.92969 l -0.29687,0.16016 c 0.28205,1.31977 0.69638,2.60883 0.98242,3.92773 0.0719,0.33139 0.20319,1.37224 0.30664,1.78711 0.12632,0.50657 0.38189,1.13459 0.56054,1.60938 0.48795,1.30715 0.44661,2.7207 0.76368,4.06055 0.16306,0.68904 0.41667,1.20758 0.6914,1.85546 0.1387,0.26831 0.28438,0.53294 0.41602,0.80469 0.14055,0.29027 0.24433,0.59853 0.40039,0.88086 0.62553,1.13102 1.46814,2.07513 2.39453,2.96094 1.08297,1.33463 2.28599,2.68702 3.9043,3.3789 0.35674,0.1527 0.73674,0.24272 1.10547,0.36329 1.0025,0.46314 2.02176,0.91974 3.06445,1.28711 2.6986,0.95138 -0.41311,-0.23452 2.34375,0.69336 0.44969,0.15125 0.88544,0.34088 1.32812,0.51171 1.25866,0.65537 2.64529,0.93172 3.98829,1.33594 1.35968,0.40925 2.67218,0.96608 4.01953,1.41406 1.93236,0.52687 3.87085,1.13619 5.69922,1.96485 1.01812,0.46144 1.89285,0.9525 2.87695,1.48047 0.41338,0.25568 0.81741,0.52795 1.24023,0.76757 0.7804,0.44247 1.97578,0.99141 2.75391,1.45508 1.38266,0.82394 2.70833,1.74495 3.97656,2.73242 0.36472,0.29764 0.72706,0.5974 1.09375,0.89258 0.39258,0.31605 0.80999,0.60314 1.1836,0.94141 0.35294,0.31956 0.66178,0.68454 0.99218,1.02734 0.37208,0.36514 0.72689,0.74799 1.11524,1.09571 0.73288,0.65642 1.52719,1.2427 2.28906,1.86523 1.10283,0.96234 2.17064,1.96114 3.02148,3.16016 0.73062,1.02958 1.30869,2.18133 1.94532,3.26953 0.82949,1.62334 2.34198,2.74124 3.31445,4.26367 0.43948,0.68802 0.73991,1.57377 1.0332,2.32227 0.93593,1.71737 1.37764,3.60014 1.80469,5.48828 0.0979,0.4323 0.23206,0.85736 0.30273,1.29492 0.0771,0.47894 0.0938,0.96634 0.14063,1.44922 -0.004,0.44602 -0.0268,0.89209 -0.0117,1.33789 0.002,0.068 0.19917,2.6623 0.20117,2.70312 0.0737,1.32473 0.0558,2.64327 0.0293,3.96875 0.0459,1.66224 -0.37972,3.28481 -0.66016,4.91016 -0.14453,0.83739 -0.24851,1.6818 -0.39062,2.51953 -0.50415,1.71625 -0.87822,3.49196 -1.49024,5.17578 -0.17446,0.48 -0.85809,2.00355 -1.07617,2.49609 -0.50033,1.1599 -1.39947,2.06649 -2.07812,3.10938 -0.65889,1.01254 -1.16402,2.1509 -1.76953,3.19727 -0.57219,1.1557 -1.49799,1.97789 -2.38282,2.875 -0.65355,0.66255 -1.23282,1.39638 -1.89843,2.04687 -0.33752,0.32984 -0.70979,0.62216 -1.06446,0.93359 -0.30929,0.31287 -0.59491,0.65184 -0.92773,0.93946 -0.34891,0.3016 -0.75348,0.53319 -1.11133,0.82422 -1.48792,1.20979 -2.85615,2.56701 -4.33398,3.79101 -0.39274,0.28233 -0.7719,0.58567 -1.17969,0.8457 -0.24855,0.15856 -2.13696,1.14316 -2.28516,1.21876 -1.38153,0.70416 -2.78428,1.36682 -4.17773,2.04687 -1.45903,0.71565 -2.90972,1.44914 -4.36133,2.17969 -0.47379,0.23845 -0.93184,0.51188 -1.42188,0.71484 -0.0681,0.0282 -3.12769,1.04373 -3.19531,1.06641 -1.64074,0.4399 -3.22022,1.05917 -4.86914,1.47265 -0.60643,0.15198 -1.22712,0.24632 -1.83203,0.4043 -1.12046,0.29273 -2.21617,0.67358 -3.32617,1.00391 -1.0889,0.26385 -2.37057,0.60102 -3.48047,0.75976 -0.31391,0.045 -3.23323,0.2587 -3.45312,0.28516 -2.27991,0.33566 -1.14021,0.19214 -3.41407,0.43555 -3.3163,0.0869 -6.630738,-0.11265 -9.949216,-0.0937 -2.202573,-0.0693 -4.267545,-0.8649 -6.378906,-1.39649 -3.503022,-0.88191 0.01703,0.1154 -3.580079,-0.94336 -2.163908,-0.88872 -4.341075,-1.82313 -6.248047,-3.19922 -0.992209,-0.71595 -1.938418,-1.49346 -2.923828,-2.21875 -1.342779,-0.98551 -2.799349,-1.82639 -4.099609,-2.87109 -1.495661,-1.20163 -2.890342,-2.56226 -4.28125,-3.88086 -1.232719,-1.45705 -2.565114,-2.84311 -3.683594,-4.39453 -0.776451,-1.01949 -1.343044,-2.18069 -2.08789,-3.2207 -0.374453,-0.52279 -0.803598,-1.00349 -1.205079,-1.50586 -1.454502,-1.9606 -2.825526,-4.01198 -3.884765,-6.2168 -0.653949,-1.36124 -0.817033,-1.86172 -1.365235,-3.27149 -0.825959,-2.38212 -1.800688,-4.70641 -2.767578,-7.0332 -0.23738,-0.57124 -0.512881,-1.12605 -0.730468,-1.70508 -0.207984,-0.55351 -0.363694,-1.12469 -0.544922,-1.6875 -0.376441,-2.49615 -1.260556,-4.89696 -1.640625,-7.39062 -0.08205,-0.53843 -0.297235,-3.40495 -0.335938,-3.89844 -0.674986,-3.78342 -0.395562,-7.61708 -0.314453,-11.43164 0.0038,-0.64214 0.01158,-1.28368 0.01172,-1.92578 3.78e-4,-0.67434 -0.03893,-1.3497 -0.01172,-2.02344 0.02415,-0.59316 0.111515,-1.18232 0.166016,-1.77344 0.05639,-0.6113 0.09226,-1.22476 0.167968,-1.83398 0.171251,-1.37877 0.327136,-1.94324 0.625,-3.29688 0.0754,-0.56685 0.152862,-1.13213 0.226563,-1.69921 0.225536,-1.73416 0.186378,-1.73612 0.517578,-3.41211 0.3406,-1.72343 0.762848,-3.43388 1.136719,-5.15039 0.239119,-1.67483 0.944948,-3.21772 1.4375,-4.82032 0.163147,-0.53076 0.274564,-1.07463 0.4375,-1.60547 0.311569,-1.01521 0.685661,-2.01074 1.023437,-3.01757 0.19434,-0.467 0.408388,-0.92603 0.583985,-1.40039 0.190477,-0.51459 0.323032,-1.04995 0.513672,-1.56446 0.755758,-2.03958 1.781662,-3.98239 2.77539,-5.91211 0.2496,-0.41903 0.478227,-0.85143 0.748047,-1.25781 0.40851,-0.61519 1.324662,-1.77366 1.787109,-2.36523 1.010589,-1.29279 2.008237,-2.58588 2.966797,-3.91797 1.084642,-1.55811 2.036239,-3.22112 3.324219,-4.62696 0.557892,-0.60891 1.223768,-1.18182 1.835938,-1.73242 0.989582,-0.78448 2.077217,-1.41474 3.097656,-2.15625 0.308761,-0.22435 0.599746,-0.47483 0.921875,-0.67968 0.217621,-0.13834 0.466827,-0.21909 0.691406,-0.34571 0.400037,-0.22564 0.787848,-0.47276 1.181641,-0.70898 0.821408,-0.50128 1.668081,-1.026512 2.607422,-1.281252 0.557049,-0.151181 1.134908,-0.210708 1.699218,-0.332031 0.898269,-0.120189 1.865526,-0.188856 2.767578,-0.03125 0.241599,0.04233 0.470346,0.144479 0.708985,0.201172 0.2987,0.07106 0.601418,0.12079 0.902344,0.18164 0.300929,0.0858 0.607162,0.153876 0.902343,0.257813 0.732238,0.257348 1.433506,0.593158 2.191407,0.785158 0.21922,0.0556 0.447118,0.0783 0.669921,0.11719 0.229883,0.0601 0.459583,0.11959 0.689454,0.17968 1.766211,0.12737 3.315958,0.88934 4.753906,1.86914 1.195272,0.61327 2.289474,1.38101 3.408203,2.11719 1.021591,0.66686 1.969229,1.42172 2.949215,2.14649 0.31197,0.17162 0.48488,0.49361 0.75391,0.71093 0.0964,0.0775 0.22396,0.10838 0.32227,0.1836 0.30221,0.2313 0.13876,0.26405 0.58789,0.27539 0.37657,-0.10912 0.80682,-0.016 1.18164,-0.10938 0.13596,-0.0336 0.25514,-0.116 0.38281,-0.17383 l 0.27734,-0.2207 c -0.12487,0.0616 -0.24045,0.15153 -0.375,0.18555 -0.37141,0.0971 -0.80665,-0.009 -1.17968,0.11133 -0.45704,0.0121 -0.27146,-0.0258 -0.57813,-0.25977 -0.0962,-0.0733 -0.22387,-0.10019 -0.31836,-0.17578 -0.27151,-0.2171 -0.44305,-0.54363 -0.75781,-0.71484 -0.980411,-0.72537 -1.929332,-1.48067 -2.951173,-2.14844 -1.119009,-0.73546 -2.20958,-1.5045 -3.40625,-2.11524 -1.439747,-0.98056 -2.992507,-1.75538 -4.761719,-1.88086 -0.23037,-0.0609 -0.461044,-0.12079 -0.691406,-0.18164 -0.221851,-0.0374 -0.447824,-0.0585 -0.666016,-0.11328 -0.759481,-0.19052 -1.4608,-0.52588 -2.193359,-0.785154 -0.295601,-0.104315 -0.60288,-0.173214 -0.904297,-0.259765 -0.29997,-0.0601 -0.602904,-0.108255 -0.900391,-0.179688 -0.240291,-0.05783 -0.46964,-0.163567 -0.71289,-0.207031 -0.434871,-0.0771 -0.910141,-0.100852 -1.386719,-0.08984 z"
       transform="matrix(0.26458333,0,0,0.26458333,0,170)"
       id="path30" />
    <path
       style="fill:none;stroke:#000000;stroke-width:0.26458332px;stroke-linecap:butt;stroke-linejoin:miter;stroke-opacity:1"
       d="m 41.166857,211.56647 c 17.58722,-13.33095 15.98082,-12.10253 15.98082,-12.10253 z"
       id="path54"
       inkscape:connector-curvature="0" />
    <path
       style="fill:none;stroke:#000000;stroke-width:0.26458332px;stroke-linecap:butt;stroke-linejoin:miter;stroke-opacity:1"
       d="m 41.125467,211.2334 9.78561,13.93292 z"
       id="path60"
       inkscape:connector-curvature="0" />
    <path
       style="fill:none;stroke:#000000;stroke-width:0.26458332px;stroke-linecap:butt;stroke-linejoin:miter;stroke-opacity:1"
       d="m 41.125467,211.2334 -11.097579,8.54676 z"
       id="path62"
       inkscape:connector-curvature="0" />
    <path
       style="fill:none;stroke:#000000;stroke-width:0.99999994"
       d="m 133.82227,218.24609 -0.30469,0.15821 c 0.60032,2.36424 0.45749,4.94956 1.20703,7.27929 0.22606,0.70266 0.75522,1.68341 1.09375,2.34766 0.15604,0.39383 0.32694,0.78248 0.46875,1.18164 0.13693,0.38547 0.22338,0.78893 0.36719,1.17188 0.57642,1.5349 1.36882,2.92538 2.28711,4.27539 0.49013,0.64021 0.95501,1.29686 1.41211,1.95898 0.11111,-0.0422 0.22297,-0.0825 0.33398,-0.125 -0.46813,-0.67917 -0.94575,-1.35286 -1.44727,-2.00976 -0.91595,-1.34744 -1.70782,-2.73597 -2.2832,-4.26758 -0.14415,-0.38366 -0.23179,-0.78768 -0.36914,-1.17383 -0.14233,-0.40018 -0.31231,-0.78875 -0.46875,-1.18359 -0.34133,-0.66826 -0.86347,-1.63153 -1.0918,-2.33985 -0.75024,-2.32747 -0.61749,-4.90909 -1.20507,-7.27344 z"
       transform="matrix(0.26458333,0,0,0.26458333,0,170)"
       id="path418" />
    <path
       style="fill:none;stroke:#000000;stroke-width:0.99999994"
       d="m 134.30859,216.43555 c -0.0163,0.01 -0.0373,0.033 -0.0605,0.0625 0.0203,0.001 0.0416,0.024 0.0625,0.0312 0.009,-0.025 0.0315,-0.0467 0.0273,-0.0742 -0.004,-0.0243 -0.014,-0.0286 -0.0293,-0.0195 z"
       transform="matrix(0.26458333,0,0,0.26458333,0,170)"
       id="path658" />
    <path
       style="fill:none;stroke:#000000;stroke-width:0.99999994"
       d="m 134.31055,216.5293 c -0.0331,0.0897 -0.11696,0.16951 -0.16797,0.25586 0.003,0.14823 -0.0282,0.30244 0.0117,0.44531 0.21959,0.78814 0.74323,1.35323 1.30859,1.90625 0.83112,0.52278 1.48152,1.23025 2.14453,1.9414 0.12174,0.12586 0.2297,0.26622 0.36524,0.37696 0.11741,0.0959 0.9627,0.6339 1.08984,0.72461 0.42818,0.30625 0.76337,0.66105 1.10742,1.05469 0.1721,0.27526 0.45914,0.45525 0.64649,0.71679 0.0768,0.10696 0.10324,0.24467 0.17773,0.35352 0.17619,0.25716 0.59473,0.45555 0.83594,0.63281 0.0732,0.11717 0.14554,0.2344 0.21875,0.35156 l 0.30664,-0.17773 c -0.0755,-0.12095 -0.15097,-0.24234 -0.22656,-0.36328 -0.23031,-0.17057 -0.65797,-0.37039 -0.82813,-0.61719 -0.0768,-0.11112 -0.10295,-0.2533 -0.18164,-0.36328 -0.18708,-0.26117 -0.47486,-0.4397 -0.64648,-0.71485 -0.34595,-0.39613 -0.68455,-0.75409 -1.11524,-1.0625 -0.0945,-0.0676 -0.99547,-0.64656 -1.08398,-0.71875 -0.13554,-0.11036 -0.24365,-0.25147 -0.36524,-0.37695 -0.6633,-0.71195 -1.31075,-1.42312 -2.14648,-1.94141 -0.46079,-0.44734 -0.65373,-0.57577 -0.98633,-1.16406 -0.1285,-0.22726 -0.23725,-0.46898 -0.30664,-0.7207 -0.0412,-0.14944 0.0874,-0.35064 -0.0195,-0.46289 -0.048,-0.0503 -0.0931,-0.0604 -0.13867,-0.0762 z"
       transform="matrix(0.26458333,0,0,0.26458333,0,170)"
       id="path656" />
    <path
       style="fill:none;stroke:#000000;stroke-width:0.99999994"
       d="m 134.24805,216.49805 c -0.18759,-0.0128 -0.34692,0.20454 -0.44532,0.30468 -0.2739,0.59653 -0.0691,0.22516 -0.47851,0.78907 -0.0792,0.10885 -0.18247,0.20617 -0.23047,0.33203 -0.01,0.0254 0.0428,0.0384 0.0606,0.0527 0.39201,-0.34347 0.70574,-0.72966 0.96875,-1.32226 0.0347,-0.0323 0.083,-0.10285 0.125,-0.15625 z"
       transform="matrix(0.26458333,0,0,0.26458333,0,170)"
       id="path654" />
    <path
       style="fill:none;stroke:#000000;stroke-width:0.99999994"
       d="m 133.1543,217.97656 c -0.0238,0.0209 -0.0478,0.0419 -0.0723,0.0625 0.029,-0.0178 0.0625,-0.0285 0.0898,-0.0488 0.006,-0.004 -0.0127,-0.01 -0.0176,-0.0137 z"
       transform="matrix(0.26458333,0,0,0.26458333,0,170)"
       id="path652" />
    <path
       style="fill:none;stroke:#000000;stroke-width:0.99999994"
       d="m 133.08203,218.03906 c -0.18052,0.11071 -0.38279,0.18744 -0.55859,0.30664 -0.0198,0.014 0.0377,0.0298 0.0566,0.0449 -0.35302,0.20433 -0.79381,0.36197 -1.0332,0.71876 -0.18495,0.27552 -0.28625,0.60042 -0.44336,0.89257 -0.67279,1.25167 -1.11818,1.95325 -1.875,3.21289 l 0.3125,-0.13867 c 0.73655,-1.22933 1.2137,-1.98888 1.875,-3.21484 0.1584,-0.29367 0.25855,-0.61938 0.44726,-0.89453 0.14387,-0.20977 0.28384,-0.26275 0.44141,-0.35157 0.29849,-0.19662 0.5473,-0.38307 0.77734,-0.57617 z"
       transform="matrix(0.26458333,0,0,0.26458333,0,170)"
       id="path78" />
    <path
       style="fill:none;stroke:#000000;stroke-width:0.26458332"
       id="path84"
       d="m 30.364518,200.75551 c 1.211966,-0.7886 2.303034,-1.74219 3.460803,-2.60395 0.6278,-0.54115 1.284337,-1.05223 1.886947,-1.62218 0.271677,-0.25696 0.464561,-0.46592 0.721857,-0.73561 0.288732,-0.29283 0.622679,-0.53637 0.956588,-0.77447 0.07126,-0.0508 0.150807,-0.0899 0.219125,-0.14463 0.06912,-0.0553 0.122177,-0.12826 0.185796,-0.18984 0.109871,-0.0692 -0.02838,-0.0646 0.0475,-0.0312 0,0 -0.08659,0.036 -0.08659,0.036 v 0 c 0.05124,-0.0377 0.184502,-0.14363 0.172815,-0.0811 -0.0038,0.0204 -0.03137,0.0271 -0.04706,0.0406 -0.06466,0.0615 -0.117096,0.13606 -0.186642,0.19201 -0.06837,0.055 -0.148616,0.0935 -0.220125,0.14439 -0.334405,0.23784 -0.668915,0.48123 -0.958395,0.77361 -0.256453,0.26899 -0.451348,0.48017 -0.72213,0.73643 -0.602581,0.57028 -1.259721,1.08092 -1.886908,1.6231 -1.158433,0.86127 -2.249953,1.81454 -3.460885,2.60504 0,0 -0.0827,0.0318 -0.0827,0.0318 z"
       inkscape:connector-curvature="0" />
    <text
       xml:space="preserve"
       style="font-style:normal;font-weight:normal;font-size:3.88055563px;line-height:1.25;font-family:sans-serif;letter-spacing:0px;word-spacing:0px;fill:#000000;fill-opacity:1;stroke:none;stroke-width:0.26458332"
       x="36.736965"
       y="192.47139"
       id="text94"><tspan
         sodipodi:role="line"
         id="tspan92"
         x="36.736965"
         y="192.47139"
         style="stroke-width:0.26458332">$(x(t),y(t))$</tspan></text>
    <path
       style="fill:none;stroke:#000000;stroke-width:0.26458332"
       id="path100"
       d="m 51.277887,222.25753 c 0.47154,-0.0589 0.99239,-0.0213 1.44116,-0.21377 0.11954,-0.0513 0.3833,-0.34042 0.48218,-0.43299 0.29847,-0.27907 0.56824,-0.60088 0.79352,-0.94277 0.61849,-0.93861 -0.30127,0.39933 0.27653,-0.4346 0.0963,-0.0986 0.13308,-0.23426 0.21002,-0.3446 0.0333,-0.0478 0.082,-0.083 0.11888,-0.12804 0,0 0.0864,-0.0369 0.0864,-0.0369 v 0 c -0.0365,0.0456 -0.087,0.0793 -0.12067,0.12703 -0.0778,0.11007 -0.11213,0.24775 -0.21003,0.34564 -0.51482,0.73812 0.27036,-0.39869 -0.27716,0.43504 -0.22473,0.34222 -0.49426,0.66465 -0.7922,0.94416 -0.20267,0.18945 -0.38106,0.4046 -0.63994,0.52376 -0.41231,0.18978 -1.00651,0.15124 -1.44091,0.21145 0,0 0.0722,-0.0534 0.0722,-0.0534 z"
       inkscape:connector-curvature="0" />
    <text
       xml:space="preserve"
       style="font-style:normal;font-weight:normal;font-size:3.88055563px;line-height:1.25;font-family:sans-serif;letter-spacing:0px;word-spacing:0px;fill:#000000;fill-opacity:1;stroke:none;stroke-width:0.26458332"
       x="54.686581"
       y="219.72386"
       id="text118"><tspan
         sodipodi:role="line"
         id="tspan116"
         x="54.686581"
         y="219.72386"
         style="stroke-width:0.26458332">$(x^\prime(t_0), y^\prime(t_0))$</tspan></text>
    <flowRoot
       xml:space="preserve"
       id="flowRoot120"
       style="font-style:normal;font-weight:normal;font-size:14.66666698px;line-height:1.25;font-family:sans-serif;letter-spacing:0px;word-spacing:0px;fill:#000000;fill-opacity:1;stroke:none"><flowRegion
         id="flowRegion122"><rect
           id="rect124"
           width="7.5"
           height="28.214285"
           x="392.14285"
           y="436.80539" /></flowRegion><flowPara
         id="flowPara126" /></flowRoot>    <text
       xml:space="preserve"
       style="font-style:normal;font-weight:normal;font-size:3.88055563px;line-height:1.25;font-family:sans-serif;letter-spacing:0px;word-spacing:0px;fill:#000000;fill-opacity:1;stroke:none;stroke-width:0.26458332"
       x="43.635036"
       y="213.44907"
       id="text142"><tspan
         sodipodi:role="line"
         id="tspan140"
         x="43.635036"
         y="213.44907"
         style="stroke-width:0.26458332">$(a,b)$</tspan></text>
    <text
       xml:space="preserve"
       style="font-style:normal;font-weight:normal;font-size:3.88055563px;line-height:1.25;font-family:sans-serif;letter-spacing:0px;word-spacing:0px;fill:#000000;fill-opacity:1;stroke:none;stroke-width:0.26458332"
       x="19.066576"
       y="222.80397"
       id="text146"><tspan
         sodipodi:role="line"
         id="tspan144"
         x="19.066576"
         y="222.80397"
         style="stroke-width:0.26458332">$\nabla f(x,y)$</tspan></text>
    <path
       style="fill:none;stroke:#000000;stroke-width:0.26458332"
       id="path37"
       d="m 56.301697,199.16529 c 0.0803,-0.0116 0.16132,-0.0175 0.24219,-0.0236 0.0177,-0.001 0.0355,-0.001 0.0532,-0.003 0.0148,-0.001 0.0295,-0.004 0.0443,-0.006 0.0177,-0.002 0.0354,-0.003 0.0531,-0.004 0.13017,-0.002 0.26031,0.002 0.39051,0.002 0.10605,-0.007 0.21025,-0.0285 0.31579,-0.039 0.0323,-0.006 0.0699,0.004 0.10184,0.003 0.022,-0.001 0.0434,-0.01 0.065,-0.014 0.0303,0.0124 -8e-4,-0.001 0.0249,0.0129 0.0199,0.0111 0.0254,0.01 0.0261,0.035 -0.006,0.021 -0.0195,0.0394 -0.027,0.0598 -0.003,0.008 -0.003,0.0157 -0.006,0.0232 -0.008,0.0241 -0.0168,0.0386 -0.0283,0.0614 -0.008,0.0176 -0.0199,0.0334 -0.0284,0.0509 -0.004,0.009 -0.007,0.0188 -0.0116,0.0277 -0.005,0.01 -0.0114,0.0184 -0.0168,0.0279 -0.0195,0.0345 -0.016,0.0294 -0.0313,0.0669 -0.0249,0.0913 -0.0451,0.18371 -0.0681,0.27545 -0.004,0.0159 -0.008,0.032 -0.0121,0.0477 -0.009,0.0301 -0.0145,0.035 -0.0178,0.0647 -7.9e-4,0.008 5.3e-4,0.0155 5e-5,0.0233 -6e-5,0.001 -0.006,0.0519 -0.006,0.0531 -5.2e-4,0.008 -2.3e-4,0.0168 -0.002,0.0251 -0.002,0.0158 -0.008,0.0309 -0.0111,0.0467 -0.009,0.0529 0.003,-0.008 -0.002,0.046 -5.3e-4,0.006 -0.003,0.0119 -0.004,0.0178 -0.0104,0.0252 -0.006,0.0503 -0.004,0.0762 1e-5,0.004 2e-5,0.008 3e-5,0.0118 0,0 -0.0104,0.005 -0.0104,0.005 v 0 c -10e-6,-0.004 -10e-6,-0.008 -10e-6,-0.0117 -0.001,-0.0261 -0.006,-0.0512 0.004,-0.0766 0.002,-0.006 0.004,-0.0116 0.005,-0.0176 0.006,-0.058 -0.007,0.0111 0.002,-0.0463 0.003,-0.0157 0.009,-0.0308 0.0112,-0.0465 10e-4,-0.008 10e-4,-0.0168 0.002,-0.0252 0.002,-0.0176 0.005,-0.0352 0.006,-0.053 5.3e-4,-0.008 -0.001,-0.0157 -1e-4,-0.0235 0.003,-0.0304 0.009,-0.0339 0.0179,-0.0648 0.005,-0.0158 0.008,-0.0318 0.0121,-0.0478 0.0231,-0.0918 0.0434,-0.1842 0.068,-0.27556 0.0149,-0.0369 0.012,-0.0333 0.0312,-0.0671 0.005,-0.009 0.0119,-0.0181 0.0168,-0.0277 0.005,-0.009 0.007,-0.0188 0.0116,-0.0279 0.008,-0.0175 0.0203,-0.0333 0.0285,-0.0509 0.0112,-0.0219 0.0203,-0.0378 0.0283,-0.0611 0.003,-0.008 0.003,-0.0159 0.006,-0.0234 0.007,-0.0203 0.0205,-0.0386 0.0271,-0.0593 -2.4e-4,-0.0247 -0.006,-0.0233 -0.0255,-0.0341 -0.0229,-0.0127 0.002,-0.002 -0.0244,-0.0122 -0.0216,0.004 -0.0431,0.0126 -0.0652,0.0137 -0.0325,0.002 -0.0688,-0.008 -0.10161,-0.003 -0.10548,0.0107 -0.20967,0.0322 -0.31568,0.0388 -0.13022,2.7e-4 -0.26038,-0.004 -0.39055,-0.002 -0.0177,0.002 -0.0354,0.003 -0.0532,0.004 -0.0148,0.002 -0.0295,0.005 -0.0443,0.006 -0.0177,0.002 -0.0354,0.002 -0.0531,0.003 -0.0808,0.006 -0.16186,0.0117 -0.2421,0.0236 0,0 0.009,-0.007 0.009,-0.007 z"
       inkscape:connector-curvature="0" />
    <path
       style="fill:none;stroke:#000000;stroke-width:0.26458332"
       id="path39"
       d="m 30.036204,219.45133 c -0.01204,0.0269 -0.02066,0.0551 -0.03132,0.0825 -0.0065,0.0169 -0.01445,0.0331 -0.02241,0.0493 -0.01423,0.0292 -0.0311,0.0573 -0.04349,0.0874 -0.0054,0.0131 -0.01207,0.0336 -0.01664,0.0471 -0.0079,0.0222 -0.01333,0.0456 -0.02352,0.067 -0.0031,0.006 -0.01797,0.03 -0.02122,0.0364 -0.0029,0.006 -0.005,0.0116 -0.0074,0.0173 -0.0094,0.0336 -0.02606,0.0643 -0.03969,0.0962 -0.0065,0.0182 -0.01222,0.0365 -0.0164,0.0553 0.0016,0.004 -0.0031,0.007 -0.0034,0.0103 -2.17e-4,0.003 0.0078,10e-4 0.01513,7.9e-4 0.0141,2.7e-4 0.02754,-0.004 0.04143,-0.005 0.01125,-0.001 0.01714,-8e-4 0.0287,-8e-4 0.0182,-8e-5 0.03651,0.002 0.05472,0.001 0.0071,-2.7e-4 0.0141,-0.001 0.02117,-0.002 0.03662,-0.004 0.01148,-5.3e-4 0.04968,-0.005 0.0095,-0.001 0.019,-0.003 0.02848,-0.004 0.0094,-0.002 0.01881,-0.003 0.02811,-0.005 0.0285,-0.006 0.05647,-0.0142 0.08484,-0.0206 0.01013,-0.002 0.02037,-0.004 0.03056,-0.006 0.03574,-0.008 0.07161,-0.0149 0.106889,-0.0247 0.01405,-0.004 0.02786,-0.009 0.04184,-0.0126 0.01217,-0.002 0.02376,-0.006 0.03588,-0.008 0.0048,-7.9e-4 0.0097,-7.9e-4 0.01445,-0.001 0.0035,-5.3e-4 0.007,-0.002 0.01061,-0.002 0.0045,-1.1e-4 0.0099,0.002 0.01408,0.003 0.0061,0.005 0.0042,0.002 0.0064,0.008 0,0 -0.0036,0.002 -0.0036,0.002 v 0 c -0.0021,-0.006 -1.87e-4,-0.004 -0.0062,-0.008 -0.0043,-0.001 -0.0093,-0.003 -0.01394,-0.003 -0.0036,1e-4 -0.0071,0.001 -0.01061,0.002 -0.0048,5.2e-4 -0.0097,5.2e-4 -0.01442,0.002 -0.01209,0.002 -0.02371,0.007 -0.03583,0.008 -0.01397,0.004 -0.02779,0.009 -0.04183,0.0126 -0.03527,0.01 -0.07113,0.0169 -0.106852,0.0246 -0.01019,0.002 -0.02043,0.004 -0.03055,0.006 -0.02838,0.006 -0.05635,0.0148 -0.08487,0.0205 -0.0093,0.002 -0.01873,0.003 -0.02811,0.005 -0.0095,0.002 -0.019,0.003 -0.02851,0.004 -0.03704,0.005 -0.01416,0.002 -0.04972,0.005 -0.0071,7.9e-4 -0.0141,0.002 -0.02119,0.002 -0.01823,7.9e-4 -0.03653,-0.001 -0.05475,-0.001 -0.01162,-7e-5 -0.01738,-5.2e-4 -0.02869,8e-4 -0.01389,0.002 -0.02737,0.006 -0.04146,0.005 -0.0063,5.3e-4 -0.01572,0.002 -0.01561,-0.002 8.7e-5,-0.004 0.0054,-0.006 0.0034,-0.0103 0.0042,-0.0188 0.01,-0.0372 0.01643,-0.0554 0.01365,-0.0319 0.03036,-0.0626 0.03973,-0.0963 0.0024,-0.006 0.0046,-0.0118 0.0074,-0.0174 0.0021,-0.004 0.01921,-0.0321 0.02125,-0.0364 0.01021,-0.0213 0.01561,-0.0448 0.02355,-0.067 0.0045,-0.0133 0.01138,-0.0344 0.01664,-0.0472 0.01236,-0.0301 0.02924,-0.0581 0.04342,-0.0874 0.008,-0.0162 0.0159,-0.0325 0.02249,-0.0493 0.01072,-0.0274 0.01937,-0.0556 0.03132,-0.0825 0,0 0.0036,-0.002 0.0036,-0.002 z"
       inkscape:connector-curvature="0" />
    <path
       style="fill:none;stroke:#000000;stroke-width:0.26458332"
       id="path43"
       d="m 50.475527,225.12735 c 0.0303,0.0201 0.0615,0.0386 0.0918,0.0585 0.0344,0.0226 0.041,0.0306 0.0773,0.048 0.0125,0.006 0.0258,0.0102 0.0386,0.0156 0.0136,0.006 0.0271,0.0118 0.0407,0.0178 0.0141,0.005 0.0281,0.009 0.0423,0.0141 0.0324,0.0105 0.0521,0.0172 0.0853,0.0242 0.0447,0.009 0.0905,0.0147 0.13557,0.022 0.088,0.008 -0.004,7.9e-4 0.0822,0.004 0.0116,2.7e-4 0.0569,0.004 0.0696,0.005 0.0399,0.002 0.0141,-10e-4 0.0505,0.005 -0.0149,-5.2e-4 0.0592,0.0105 0.0426,0.005 -0.005,-0.002 -0.0107,0.001 -0.0151,-0.002 -0.003,-0.002 -0.0361,-0.0343 -0.0383,-0.0364 -0.0122,-0.0136 -0.02,-0.03 -0.0321,-0.0437 -0.003,-0.003 -0.007,-0.006 -0.01,-0.01 -0.007,-0.0101 -0.0127,-0.025 -0.0175,-0.0362 -0.0247,-0.0603 -0.0612,-0.11543 -0.0837,-0.17678 -0.005,-0.0139 -0.008,-0.0283 -0.0126,-0.0424 -0.0136,-0.0637 -0.0381,-0.12517 -0.0478,-0.18972 -2.6e-4,-0.002 -0.006,-0.0706 -0.006,-0.0758 -0.0113,-0.0628 -0.0161,-0.12657 -0.0305,-0.18875 0.002,-0.002 -0.0152,-0.0529 -0.0135,-0.0518 0.003,0.002 0.006,0.004 0.008,0.006 0,0 -0.007,0.004 -0.007,0.004 v 0 c 0.002,-0.005 0.004,-0.009 0.006,-0.014 0.002,-0.004 0.002,0.009 0.003,0.0129 0.0106,0.036 5.3e-4,-0.008 0.0102,0.0393 0.0144,0.0622 0.0193,0.12604 0.0305,0.18887 2.6e-4,0.005 0.006,0.074 0.006,0.0757 0.01,0.0646 0.0341,0.12604 0.0477,0.18967 0.004,0.0141 0.008,0.0285 0.0126,0.0423 0.0224,0.0614 0.059,0.11647 0.0838,0.17669 0.005,0.0112 0.0101,0.0257 0.0174,0.0359 0.003,0.004 0.007,0.006 0.01,0.01 0.0121,0.0136 0.0198,0.03 0.032,0.0436 0.006,0.006 0.0127,0.0126 0.0192,0.0187 0.008,0.008 0.0277,0.0191 0.0206,0.0283 -0.002,0.003 -0.0393,-0.004 -0.0426,-0.005 -0.0362,-0.006 -0.0106,-0.003 -0.0504,-0.005 -0.0139,-8e-4 -0.0566,-0.004 -0.0695,-0.005 -0.0852,-0.003 0.004,0.004 -0.0822,-0.004 -0.0451,-0.007 -0.0909,-0.0126 -0.13561,-0.0221 -0.0329,-0.007 -0.0533,-0.0139 -0.0854,-0.0243 -0.0141,-0.005 -0.0282,-0.009 -0.0423,-0.0141 -0.0136,-0.006 -0.0271,-0.012 -0.0407,-0.0177 -0.0128,-0.005 -0.0261,-0.01 -0.0387,-0.0157 -0.0363,-0.0174 -0.0429,-0.0254 -0.0772,-0.0481 -0.006,-0.004 -0.0863,-0.0548 -0.0919,-0.0584 0,0 0.007,-0.004 0.007,-0.004 z"
       inkscape:connector-curvature="0" />
    <path
       style="fill:none;stroke:#000000;stroke-width:0.26458332"
       id="path51"
       d="m 51.415507,221.75377 c -0.0559,0.0516 -0.11232,0.1037 -0.17854,0.14205 -0.0204,0.0118 -0.0676,0.0347 -0.0898,0.0457 -0.0328,0.016 -0.0621,0.0296 -0.0937,0.048 -0.0142,0.008 -0.0275,0.018 -0.0416,0.0264 -0.0173,0.0104 -0.0353,0.0195 -0.0525,0.03 -0.0291,0.0177 -0.0447,0.0304 -0.0721,0.0509 -0.012,0.009 -0.0236,0.0177 -0.0359,0.0259 -0.0112,0.007 -0.0232,0.0134 -0.0345,0.0206 -0.0272,0.0175 -0.0283,0.0204 -0.0533,0.0384 -0.0345,0.0249 -0.003,1.2e-4 -0.0325,0.0238 -0.0108,0.009 -0.0264,0.013 -0.0281,0.0288 -5.3e-4,0.004 -5.3e-4,0.008 10e-4,0.0116 0.005,0.009 0.0301,0.0198 0.035,0.0225 0.0358,0.0129 0.0704,0.0288 0.10613,0.0418 0.0174,0.006 0.0352,0.0114 0.0525,0.0177 0.0494,0.018 0.0684,0.027 0.11729,0.048 0.0203,0.009 0.0404,0.0184 0.0608,0.0273 0.0213,0.009 0.043,0.0174 0.0641,0.0269 0.0504,0.0225 0.076,0.0382 0.12728,0.059 0.0375,0.0152 0.087,0.0304 0.12537,0.0428 0.0708,0.0216 0.14205,0.0416 0.21251,0.0643 0,0 -0.007,0.004 -0.007,0.004 v 0 c -0.0704,-0.0227 -0.14165,-0.0427 -0.2124,-0.0644 -0.0392,-0.0127 -0.0872,-0.0273 -0.12539,-0.0429 -0.0516,-0.021 -0.0766,-0.0363 -0.12728,-0.059 -0.0212,-0.009 -0.0429,-0.0177 -0.0641,-0.0269 -0.0204,-0.009 -0.0405,-0.0182 -0.0608,-0.0273 -0.049,-0.021 -0.0678,-0.0299 -0.11732,-0.0479 -0.0174,-0.006 -0.0352,-0.0114 -0.0526,-0.0177 -0.0358,-0.013 -0.0705,-0.0288 -0.10631,-0.0418 -0.006,-0.003 -0.0299,-0.0138 -0.0356,-0.0231 -0.002,-0.003 -0.002,-0.008 -0.002,-0.0119 0.002,-0.0162 0.0168,-0.0205 0.028,-0.0293 0.0295,-0.0238 -0.002,0.001 0.0326,-0.0239 0.0248,-0.0179 0.0264,-0.0212 0.0534,-0.0386 0.0113,-0.007 0.0233,-0.0132 0.0345,-0.0206 0.0123,-0.008 0.024,-0.0172 0.036,-0.0258 0.0408,-0.0305 0.038,-0.0297 0.0856,-0.0587 0.0128,-0.008 0.0262,-0.0145 0.0391,-0.0222 0.0486,-0.0291 0.0962,-0.0601 0.14874,-0.0822 0.0254,-0.0126 0.0517,-0.0236 0.0762,-0.0378 0.0662,-0.0383 0.12279,-0.0902 0.17852,-0.14192 0,0 0.007,-0.003 0.007,-0.003 z"
       inkscape:connector-curvature="0" />
    <path
       style="fill:none;stroke:#000000;stroke-width:0.26458332"
       id="path55"
       d="m 30.317803,200.20085 c -0.0084,0.0209 -0.01669,0.0418 -0.02514,0.0627 -0.0076,0.0188 -0.01595,0.0373 -0.02294,0.0564 -0.0195,0.0532 -0.03221,0.10754 -0.0412,0.16327 -0.02334,0.0876 -0.04038,0.1766 -0.05708,0.26565 -0.0078,0.0531 -0.02341,0.10477 -0.03315,0.15747 -0.0037,0.0202 -0.0056,0.0407 -0.0085,0.061 -0.0021,0.0279 -0.0042,0.0563 -0.0093,0.0838 -0.0031,0.0169 -0.0085,0.0318 -0.0099,0.049 0.0011,0.0144 -7.94e-4,0.007 0.0062,0.0219 0.0016,0.004 0.0024,0.008 0.0051,0.0108 0.0074,0.007 0.02889,0.009 0.03813,0.009 0.05186,-0.002 0.103098,-0.01 0.154406,-0.0172 0.08938,-0.008 0.178435,-0.0193 0.268213,-0.021 0.05448,10e-4 0.02817,-0.001 0.08203,0.006 0.02167,0.003 0.04463,0.005 0.06575,0.0114 0.0066,0.002 0.01265,0.005 0.019,0.008 0,0 -0.0068,0.005 -0.0068,0.005 v 0 c -0.0063,-0.003 -0.0123,-0.006 -0.01884,-0.008 -0.02095,-0.006 -0.04414,-0.009 -0.06562,-0.0114 -0.0533,-0.007 -0.02801,-0.005 -0.08194,-0.006 -0.08976,0.002 -0.178808,0.0132 -0.268165,0.0211 -0.05139,0.007 -0.102738,0.0158 -0.154702,0.0172 -0.0099,-8e-4 -0.03075,-0.002 -0.03862,-0.0102 -0.0028,-0.003 -0.0034,-0.007 -0.0051,-0.0108 -0.007,-0.0149 -0.0052,-0.008 -0.0063,-0.0223 0.0013,-0.018 0.0067,-0.0316 0.01,-0.0491 0.0051,-0.0275 0.0072,-0.056 0.0093,-0.0838 0.0029,-0.0204 0.0048,-0.0409 0.0085,-0.0611 0.0097,-0.0527 0.0254,-0.10433 0.03318,-0.15745 0.01672,-0.0891 0.0338,-0.17802 0.05711,-0.26564 0.0089,-0.0559 0.0217,-0.11026 0.04127,-0.1635 0.007,-0.0191 0.0154,-0.0376 0.02299,-0.0564 0.0084,-0.0208 0.01664,-0.0417 0.02498,-0.0626 0,0 0.0072,-0.003 0.0072,-0.003 z"
       inkscape:connector-curvature="0" />
    <flowRoot
       xml:space="preserve"
       id="flowRoot109"
       style="fill:black;fill-opacity:1;line-height:1.25;stroke:none;font-family:sans-serif;font-style:normal;font-weight:normal;font-size:14.66666667px;letter-spacing:0px;word-spacing:0px"><flowRegion
         id="flowRegion111"><rect
           id="rect113"
           width="87.290024"
           height="23.580473"
           x="148.60283"
           y="248.20525" /></flowRegion><flowPara
         id="flowPara115" /></flowRoot>    <flowRoot
       xml:space="preserve"
       id="flowRoot117"
       style="fill:black;fill-opacity:1;line-height:1.25;stroke:none;font-family:sans-serif;font-style:normal;font-weight:normal;font-size:14.66666667px;letter-spacing:0px;word-spacing:0px"><flowRegion
         id="flowRegion119"><rect
           id="rect121"
           width="113.85597"
           height="20.797306"
           x="146.85831"
           y="246.16698" /></flowRegion><flowPara
         id="flowPara123" /></flowRoot>    <flowRoot
       xml:space="preserve"
       id="flowRoot125"
       style="fill:black;fill-opacity:1;line-height:1.25;stroke:none;font-family:sans-serif;font-style:normal;font-weight:normal;font-size:14.66666667px;letter-spacing:0px;word-spacing:0px"><flowRegion
         id="flowRegion127"><rect
           id="rect129"
           width="98.928574"
           height="31.607143"
           x="149.64285"
           y="242.32143" /></flowRegion><flowPara
         id="flowPara131" /></flowRoot>    <text
       xml:space="preserve"
       style="font-style:normal;font-weight:normal;font-size:3.88055563px;line-height:1.25;font-family:sans-serif;letter-spacing:0px;word-spacing:0px;fill:#000000;fill-opacity:1;stroke:none;stroke-width:0.26458332"
       x="35.813244"
       y="235.57887"
       id="text976"><tspan
         sodipodi:role="line"
         id="tspan974"
         x="35.813244"
         y="235.57887"
         style="stroke-width:0.26458332">$f(x,y)=k$</tspan></text>
    <ellipse
       style="fill:#000000;stroke:#000000;stroke-width:0.26458332"
       id="path59"
       cx="41.205311"
       cy="211.49469"
       rx="0.96856391"
       ry="0.85635227" />
  </g>
</svg>
