<?xml version="1.0" encoding="UTF-8" standalone="no"?>
<!-- Created with Inkscape (http://www.inkscape.org/) -->

<svg
   xmlns:rendltx="http://NOTSET"
   xmlns:dc="http://purl.org/dc/elements/1.1/"
   xmlns:cc="http://creativecommons.org/ns#"
   xmlns:rdf="http://www.w3.org/1999/02/22-rdf-syntax-ns#"
   xmlns:svg="http://www.w3.org/2000/svg"
   xmlns="http://www.w3.org/2000/svg"
   xmlns:xlink="http://www.w3.org/1999/xlink"
   xmlns:sodipodi="http://sodipodi.sourceforge.net/DTD/sodipodi-0.dtd"
   xmlns:inkscape="http://www.inkscape.org/namespaces/inkscape"
   width="210mm"
   height="297mm"
   viewBox="0 0 210 297"
   version="1.1"
   id="svg8"
   inkscape:version="0.92.4 (5da689c313, 2019-01-14)"
   sodipodi:docname="complement.svg">
  <defs
     id="defs2" />
  <sodipodi:namedview
     id="base"
     pagecolor="#ffffff"
     bordercolor="#666666"
     borderopacity="1.0"
     inkscape:pageopacity="0.0"
     inkscape:pageshadow="2"
     inkscape:zoom="1.979899"
     inkscape:cx="256.90627"
     inkscape:cy="689.52846"
     inkscape:document-units="mm"
     inkscape:current-layer="ltx-render-layer"
     showgrid="false"
     inkscape:window-width="1920"
     inkscape:window-height="1001"
     inkscape:window-x="-9"
     inkscape:window-y="-9"
     inkscape:window-maximized="1" />
  <metadata
     id="metadata5">
    <rdf:RDF>
      <cc:Work
         rdf:about="">
        <dc:format>image/svg+xml</dc:format>
        <dc:type
           rdf:resource="http://purl.org/dc/dcmitype/StillImage" />
        <dc:title />
      </cc:Work>
    </rdf:RDF>
  </metadata>
  <g
     inkscape:label="Layer 1"
     inkscape:groupmode="layer"
     id="layer1">
    <circle
       style="opacity:0.5;vector-effect:none;fill:none;fill-opacity:1;fill-rule:evenodd;stroke:#000000;stroke-width:0.26499999;stroke-linecap:butt;stroke-linejoin:miter;stroke-miterlimit:4;stroke-dasharray:none;stroke-dashoffset:0;stroke-opacity:1"
       id="path815"
       cx="125.1325"
       cy="116.8675"
       r="30" />
    <circle
       style="opacity:0.5;vector-effect:none;fill:none;fill-opacity:1;fill-rule:evenodd;stroke:#000000;stroke-width:0.265;stroke-linecap:butt;stroke-linejoin:miter;stroke-miterlimit:4;stroke-dasharray:none;stroke-dashoffset:0;stroke-opacity:1"
       id="path815-5"
       cx="80.1325"
       cy="116.8675"
       r="30.000002" />
    <rect
       style="opacity:0.5;fill:none;fill-opacity:1;fill-rule:evenodd;stroke:#1c0000;stroke-width:0.26499999;stroke-miterlimit:4;stroke-dasharray:none;stroke-opacity:1"
       id="rect2461"
       width="119.62946"
       height="75.784225"
       x="44.034225"
       y="79.474701" />
    <text
       xml:space="preserve"
       style="font-style:normal;font-weight:normal;font-size:3.88055563px;line-height:1.25;font-family:sans-serif;letter-spacing:0px;word-spacing:0px;fill:#000000;fill-opacity:1;stroke:none;stroke-width:0.26458332"
       x="52.785732"
       y="92.672447"
       id="text2465"><tspan
         sodipodi:role="line"
         id="tspan2463"
         x="52.785732"
         y="96.212799"
         style="stroke-width:0.26458332" /></text>
    <text
       xml:space="preserve"
       style="font-style:normal;font-weight:normal;font-size:3.88055563px;line-height:1.25;font-family:sans-serif;letter-spacing:0px;word-spacing:0px;fill:#000000;fill-opacity:1;stroke:none;stroke-width:0.26458332"
       x="147.39914"
       y="92.806076"
       id="text2469"><tspan
         sodipodi:role="line"
         id="tspan2467"
         x="147.39914"
         y="96.346428"
         style="stroke-width:0.26458332" /></text>
    <text
       xml:space="preserve"
       style="font-style:normal;font-weight:normal;font-size:3.88055563px;line-height:1.25;font-family:sans-serif;letter-spacing:0px;word-spacing:0px;fill:#000000;fill-opacity:1;stroke:none;stroke-width:0.26458332"
       x="46.9058"
       y="84.921631"
       id="text2473"><tspan
         sodipodi:role="line"
         id="tspan2471"
         x="46.9058"
         y="88.461983"
         style="stroke-width:0.26458332" /></text>
    <path
       style="opacity:0.5;fill:none;fill-opacity:1;fill-rule:evenodd;stroke:none;stroke-width:0.50587165;stroke-miterlimit:4;stroke-dasharray:none;stroke-opacity:1"
       d="m 385.09032,512.28399 c -12.23294,-14.82622 -20.82638,-34.6805 -23.8048,-54.99859 -1.05399,-7.19012 -1.20818,-23.113 -0.28366,-29.29443 2.42957,-16.24441 6.36538,-28.21034 13.53948,-41.16371 3.3076,-5.97212 7.95399,-12.78726 11.51294,-16.88673 l 2.0203,-2.32714 2.77792,3.55972 c 18.39954,23.57777 27.00454,52.4011 24.21185,81.10007 -1.26752,13.02573 -5.15076,26.86017 -10.79359,38.45335 -4.23953,8.71008 -8.55294,15.41297 -15.33515,23.8303 l -0.97331,1.20797 z"
       id="path2593"
       inkscape:connector-curvature="0"
       transform="scale(0.26458333)" />
    <path
       style="opacity:0.5;fill:#ff0000;fill-opacity:1;stroke:#000000;stroke-width:0.19089496;stroke-miterlimit:4;stroke-dasharray:none;stroke-opacity:1"
       d="m 294.63547,554.20159 c -15.28478,-1.4031 -28.09803,-4.91514 -41.16371,-11.28275 -44.0433,-21.46468 -69.18345,-68.99142 -62.12907,-117.45325 6.19175,-42.53573 36.22144,-77.99057 77.16271,-91.10289 20.4035,-6.53467 43.49617,-7.00797 64.26059,-1.31707 18.96594,5.19799 37.60089,16.17025 50.92848,29.98671 l 3.44857,3.57507 -2.99688,3.6702 c -12.50227,15.31122 -21.09811,35.14323 -24.13917,55.69305 -1.20068,8.11351 -1.21154,23.01831 -0.0228,31.24029 2.26042,15.63386 7.41407,30.09099 15.55955,43.64799 2.8229,4.69831 7.81144,11.63565 10.19292,14.17484 l 1.58027,1.68492 -5.83287,5.63868 c -17.4876,16.90543 -38.37207,27.25764 -62.35241,30.90747 -5.00124,0.76119 -20.11332,1.33908 -24.4962,0.93674 z"
       id="path886"
       inkscape:connector-curvature="0"
       transform="scale(0.26458333)" />
    <path
       style="opacity:0.5;fill:#ff0000;fill-opacity:1;stroke:#000000;stroke-width:0.19089496;stroke-miterlimit:4;stroke-dasharray:none;stroke-opacity:1"
       d="M 166.85118,443.64833 V 300.96429 H 392.36773 617.88429 V 443.64833 586.33238 H 392.36773 166.85118 Z m 155.31095,110.41392 c 23.54363,-4.20999 44.50012,-15.0894 61.16237,-31.75197 l 4.59382,-4.59391 4.24501,4.29045 c 12.22706,12.35793 27.96561,22.16309 44.39858,27.66041 12.52431,4.18976 22.86937,5.8555 36.36549,5.8555 30.2155,0 57.49782,-11.04261 79.23386,-32.07018 9.84093,-9.52018 16.81273,-19.08789 22.97535,-31.5301 5.5534,-11.21222 9.02056,-22.62038 10.98739,-36.15229 0.96386,-6.63143 0.83246,-22.40069 -0.2481,-29.77425 -3.64935,-24.90262 -14.5516,-46.77354 -32.13391,-64.46356 -17.68881,-17.79718 -38.59059,-28.4671 -63.89454,-32.61683 -7.81718,-1.28199 -26.02773,-1.28154 -33.84011,8.6e-4 -24.21002,3.97397 -45.11073,14.3865 -62.572,31.17276 l -5.6901,5.47015 -4.25475,-4.30024 c -15.95264,-16.12323 -36.63184,-27.14252 -59.05552,-31.46884 -57.97989,-11.18637 -115.33725,24.21257 -131.2987,81.03292 -2.75851,9.81989 -3.65043,16.13363 -3.92855,27.80954 -0.1955,8.20764 -0.0592,12.16797 0.59583,17.31449 6.18923,48.62654 42.89147,88.05564 90.80033,97.54649 8.51731,1.6873 12.20673,1.96308 24.13312,1.80399 8.88739,-0.11856 12.68519,-0.38781 17.42513,-1.23539 z"
       id="path888"
       inkscape:connector-curvature="0"
       transform="scale(0.26458333)" />
    <path
       style="opacity:0.5;fill:#0000ff;fill-opacity:1;stroke:#000000;stroke-width:0.19089496;stroke-miterlimit:4;stroke-dasharray:none;stroke-opacity:1"
       d="m 464.84618,554.21064 c -0.97227,-0.1179 -3.69969,-0.45171 -6.06092,-0.74179 -20.23574,-2.48603 -41.09713,-11.39049 -56.95645,-24.31126 -4.79276,-3.90472 -11.6289,-10.37562 -12.31438,-11.65644 -0.40931,-0.7648 -0.10745,-1.44726 1.57438,-3.55941 17.81133,-22.36867 26.67679,-48.71933 25.60381,-76.10178 -0.66908,-17.07513 -4.3368,-31.72498 -11.69664,-46.71956 -3.07028,-6.25524 -9.36101,-16.10419 -13.29321,-20.81227 -1.43992,-1.72403 -2.61803,-3.33036 -2.61803,-3.56961 0,-0.23926 1.76145,-2.2158 3.91434,-4.39232 37.65513,-38.06838 97.74616,-44.26453 142.07203,-14.64944 31.8673,21.29124 50.46156,55.84871 50.48415,93.82491 0.0107,17.91217 -3.69319,33.93235 -11.58512,50.10891 -16.01649,32.82994 -47.673,55.87669 -84.62776,61.61118 -4.92166,0.76372 -20.95761,1.39798 -24.4962,0.96888 z"
       id="path890"
       inkscape:connector-curvature="0"
       transform="scale(0.26458333)" />
    <path
       style="opacity:0.5;fill:#0000ff;fill-opacity:1;stroke:#000000;stroke-width:0.19089496;stroke-miterlimit:4;stroke-dasharray:none;stroke-opacity:1"
       d="M 166.85118,443.64833 V 300.96429 H 392.36773 617.88429 V 443.64833 586.33238 H 392.36773 166.85118 Z m 154.80588,110.64566 c 6.41792,-1.13287 16.72948,-4.10539 23.12677,-6.66676 14.71994,-5.89364 24.78048,-12.50772 38.99513,-25.63651 l 4.31465,-3.98505 5.42006,5.266 c 16.78054,16.3036 37.49924,26.81634 61.23098,31.06882 6.16716,1.10509 27.96023,1.27411 34.09265,0.26442 20.86414,-3.43526 36.12318,-9.7557 52.04895,-21.55916 24.42345,-18.10156 40.13715,-44.61836 45.19445,-76.26543 0.74465,-4.6598 0.74716,-24.60351 0.004,-30.05204 -2.72384,-19.96251 -11.36558,-40.01927 -24.2648,-56.316 -9.29894,-11.74818 -24.54934,-24.09962 -38.28056,-31.00378 -8.2782,-4.16234 -22.15583,-8.59266 -32.50116,-10.37572 -6.25021,-1.07726 -20.17089,-1.49941 -28.34561,-0.85961 -24.98471,1.95546 -50.07481,13.60603 -69.82941,32.42523 -2.60413,2.48081 -4.92345,4.51057 -5.15405,4.51057 -0.2306,0 -2.00417,-1.61674 -3.94126,-3.59276 -14.13731,-14.42141 -33.84741,-25.68033 -53.27597,-30.43261 -10.06804,-2.46267 -15.56131,-3.07676 -27.52269,-3.07676 -12.51519,0 -17.44981,0.59922 -28.71841,3.48732 -44.74339,11.46757 -79.1314,50.37034 -84.40951,95.49153 -0.96081,8.21367 -0.97539,22.64255 -0.0296,29.28955 5.51475,38.75794 28.58102,70.8544 63.12755,87.84127 11.99236,5.89677 25.84378,9.94639 37.40308,10.93522 7.22429,0.618 26.10981,0.16101 31.31473,-0.75774 z"
       id="path892"
       inkscape:connector-curvature="0"
       transform="scale(0.26458333)" />
  </g>
  <g
     inkscape:groupmode="layer"
     id="layer2"
     inkscape:label="Text"
     style="display:none">
    <text
       xml:space="preserve"
       style="font-style:normal;font-weight:normal;font-size:3.88055563px;line-height:1.25;font-family:sans-serif;letter-spacing:0px;word-spacing:0px;fill:#000000;fill-opacity:1;stroke:none;stroke-width:0.26458332"
       x="55.725697"
       y="91.603363"
       id="text2478"><tspan
         sodipodi:role="line"
         id="tspan2476"
         x="55.725697"
         y="91.603363"
         style="stroke-width:0.26458332">$A$</tspan></text>
    <text
       xml:space="preserve"
       style="font-style:normal;font-weight:normal;font-size:3.88055563px;line-height:1.25;font-family:sans-serif;letter-spacing:0px;word-spacing:0px;fill:#000000;fill-opacity:1;stroke:none;stroke-width:0.26458332"
       x="145.79553"
       y="91.870644"
       id="text2482"><tspan
         sodipodi:role="line"
         id="tspan2480"
         x="145.79553"
         y="91.870644"
         style="stroke-width:0.26458332">$B$</tspan></text>
    <text
       xml:space="preserve"
       style="font-style:normal;font-weight:normal;font-size:3.88055563px;line-height:1.25;font-family:sans-serif;letter-spacing:0px;word-spacing:0px;fill:#000000;fill-opacity:1;stroke:none;stroke-width:0.26458332"
       x="45.56945"
       y="83.986183"
       id="text2486"><tspan
         sodipodi:role="line"
         id="tspan2484"
         x="45.56945"
         y="83.986183"
         style="stroke-width:0.26458332">$S$</tspan></text>
  </g>
  <g
     rendltx:math="False"
     rendltx:newline="False"
     rendltx:fontsize="10.0"
     rendltx:depth="0.0"
     rendltx:scale="1.0"
     rendltx:packages="amsmath,amssymb"
     rendltx:preamble="C:\Users\Cameron\Desktop\mathpreamble.tex"
     id="ltx-render-layer"
     inkscape:groupmode="layer"
     inkscape:label="Rendered Latex"
     style="display:inline">
    <g
       id="lx-text2478"
       transform="matrix(0.352778,0,0,0.352778,55.725697,91.603363)">
      <defs
         id="defs2516">
        <g
           id="g2514">
          <symbol
             id="lx-text2478-glyph0-0"
             overflow="visible"
             style="overflow:visible">
            <path
               id="path2508"
               d=""
               style="stroke:none"
               inkscape:connector-curvature="0" />
          </symbol>
          <symbol
             id="lx-text2478-glyph0-1"
             overflow="visible"
             style="overflow:visible">
            <path
               id="path2511"
               d="M 7.1875,-0.203125 C 7.1875,-0.3125 7.09375,-0.3125 6.953125,-0.3125 6.34375,-0.3125 6.34375,-0.375 6.3125,-0.671875 l -0.609375,-6.21875 c -0.015625,-0.203125 -0.015625,-0.25 -0.1875,-0.25 -0.15625,0 -0.203125,0.078125 -0.265625,0.171875 L 1.78125,-1.140625 C 1.390625,-0.484375 1,-0.34375 0.5625,-0.3125 0.4375,-0.296875 0.34375,-0.296875 0.34375,-0.109375 0.34375,-0.046875 0.40625,0 0.484375,0 0.75,0 1.0625,-0.03125 1.328125,-0.03125 c 0.34375,0 0.6875,0.03125 1,0.03125 0.0625,0 0.1875,0 0.1875,-0.1875 0,-0.109375 -0.078125,-0.125 -0.15625,-0.125 -0.21875,-0.015625 -0.46875,-0.09375 -0.46875,-0.34375 0,-0.125 0.0625,-0.234375 0.140625,-0.375 0.078125,-0.109375 0.078125,-0.109375 0.765625,-1.265625 h 2.5 c 0.015625,0.203125 0.15625,1.5625 0.15625,1.65625 0,0.296875 -0.515625,0.328125 -0.71875,0.328125 C 4.59375,-0.3125 4.5,-0.3125 4.5,-0.109375 4.5,0 4.640625,0 4.640625,0 5.046875,0 5.46875,-0.03125 5.875,-0.03125 6.125,-0.03125 6.765625,0 7.015625,0 7.0625,0 7.1875,0 7.1875,-0.203125 Z M 5.265625,-2.609375 H 2.984375 L 4.9375,-5.90625 Z m 0,0"
               style="stroke:none"
               inkscape:connector-curvature="0" />
          </symbol>
        </g>
      </defs>
      <g
         id="lx-text2478-surface1">
        <g
           id="g2520"
           style="fill:#000000;fill-opacity:1">
          <use
             id="use2518"
             y="0"
             x="0"
             xlink:href="#lx-text2478-glyph0-1"
             width="100%"
             height="100%" />
        </g>
      </g>
    </g>
    <g
       id="lx-text2482"
       transform="matrix(0.352778,0,0,0.352778,144.45918,92.004279)">
      <defs
         id="defs2532">
        <g
           id="g2530">
          <symbol
             id="lx-text2482-glyph0-0"
             overflow="visible"
             style="overflow:visible">
            <path
               id="path2524"
               d=""
               style="stroke:none"
               inkscape:connector-curvature="0" />
          </symbol>
          <symbol
             id="lx-text2482-glyph0-1"
             overflow="visible"
             style="overflow:visible">
            <path
               id="path2527"
               d="M 7,-2.15625 C 7,-2.875 6.421875,-3.453125 5.453125,-3.5625 6.484375,-3.75 7.53125,-4.484375 7.53125,-5.4375 c 0,-0.734375 -0.65625,-1.375 -1.84375,-1.375 H 2.328125 c -0.1875,0 -0.28125,0 -0.28125,0.203125 0,0.109375 0.09375,0.109375 0.28125,0.109375 0,0 0.203125,0 0.375,0.015625 0.171875,0.03125 0.265625,0.03125 0.265625,0.171875 0,0.03125 -0.015625,0.0625 -0.03125,0.1875 L 1.59375,-0.78125 C 1.5,-0.390625 1.46875,-0.3125 0.6875,-0.3125 c -0.171875,0 -0.265625,0 -0.265625,0.203125 C 0.421875,0 0.515625,0 0.6875,0 H 4.25 C 5.828125,0 7,-1.171875 7,-2.15625 Z m -0.375,-3.3125 c 0,0.875 -0.859375,1.8125 -2.0625,1.8125 H 3.09375 L 3.71875,-6.125 C 3.8125,-6.46875 3.828125,-6.5 4.25,-6.5 h 1.296875 c 0.875,0 1.078125,0.59375 1.078125,1.03125 z M 6.078125,-2.265625 C 6.078125,-1.28125 5.1875,-0.3125 4,-0.3125 H 2.65625 c -0.140625,0 -0.15625,0 -0.21875,0 -0.109375,-0.015625 -0.140625,-0.03125 -0.140625,-0.109375 0,-0.03125 0,-0.046875 0.0625,-0.21875 l 0.6875,-2.78125 h 1.875 c 0.953125,0 1.15625,0.734375 1.15625,1.15625 z m 0,0"
               style="stroke:none"
               inkscape:connector-curvature="0" />
          </symbol>
        </g>
      </defs>
      <g
         id="lx-text2482-surface1">
        <g
           id="g2536"
           style="fill:#000000;fill-opacity:1">
          <use
             id="use2534"
             y="0"
             x="0"
             xlink:href="#lx-text2482-glyph0-1"
             width="100%"
             height="100%" />
        </g>
      </g>
    </g>
    <g
       id="lx-text2486"
       transform="matrix(0.352778,0,0,0.352778,45.56945,83.986183)">
      <defs
         id="defs2548">
        <g
           id="g2546">
          <symbol
             id="lx-text2486-glyph0-0"
             overflow="visible"
             style="overflow:visible">
            <path
               id="path2540"
               d=""
               style="stroke:none"
               inkscape:connector-curvature="0" />
          </symbol>
          <symbol
             id="lx-text2486-glyph0-1"
             overflow="visible"
             style="overflow:visible">
            <path
               id="path2543"
               d="m 5.515625,-2.34375 c 0,-0.6875 -0.34375,-1.03125 -0.484375,-1.171875 C 4.796875,-3.734375 4.640625,-3.78125 3.765625,-4 L 3.09375,-4.1875 c -0.265625,-0.09375 -0.609375,-0.375 -0.609375,-0.90625 0,-0.8125 0.796875,-1.65625 1.75,-1.65625 0.8125,0 1.421875,0.4375 1.421875,1.546875 0,0.3125 -0.03125,0.5 -0.03125,0.5625 0,0 0,0.09375 0.109375,0.09375 0.109375,0 0.125,-0.03125 0.15625,-0.203125 L 6.4375,-6.921875 c 0,-0.03125 -0.03125,-0.109375 -0.125,-0.109375 -0.046875,0 -0.046875,0.015625 -0.171875,0.15625 L 5.65625,-6.3125 c -0.25,-0.46875 -0.765625,-0.71875 -1.421875,-0.71875 -1.265625,0 -2.453125,1.15625 -2.453125,2.359375 0,0.796875 0.515625,1.265625 1.03125,1.40625 l 1.0625,0.28125 c 0.375,0.09375 0.921875,0.25 0.921875,1.0625 0,0.890625 -0.8125,1.828125 -1.796875,1.828125 -0.640625,0 -1.75,-0.21875 -1.75,-1.453125 0,-0.234375 0.0625,-0.484375 0.0625,-0.53125 C 1.328125,-2.125 1.328125,-2.15625 1.328125,-2.15625 c 0,-0.09375 -0.0625,-0.109375 -0.109375,-0.109375 -0.046875,0 -0.078125,0.015625 -0.109375,0.046875 -0.03125,0.03125 -0.59375,2.3125 -0.59375,2.34375 0,0.046875 0.046875,0.09375 0.109375,0.09375 0.046875,0 0.0625,-0.015625 0.1875,-0.15625 L 1.296875,-0.5 c 0.421875,0.578125 1.109375,0.71875 1.6875,0.71875 1.359375,0 2.53125,-1.328125 2.53125,-2.5625 z m 0,0"
               style="stroke:none"
               inkscape:connector-curvature="0" />
          </symbol>
        </g>
      </defs>
      <g
         id="lx-text2486-surface1">
        <g
           id="g2552"
           style="fill:#000000;fill-opacity:1">
          <use
             id="use2550"
             y="0"
             x="0"
             xlink:href="#lx-text2486-glyph0-1"
             width="100%"
             height="100%" />
        </g>
      </g>
    </g>
  </g>
</svg>
