<?xml version="1.0" encoding="UTF-8" standalone="no"?>
<!-- Created with Inkscape (http://www.inkscape.org/) -->

<svg
   xmlns:rendltx="http://NOTSET"
   xmlns:dc="http://purl.org/dc/elements/1.1/"
   xmlns:cc="http://creativecommons.org/ns#"
   xmlns:rdf="http://www.w3.org/1999/02/22-rdf-syntax-ns#"
   xmlns:svg="http://www.w3.org/2000/svg"
   xmlns="http://www.w3.org/2000/svg"
   xmlns:xlink="http://www.w3.org/1999/xlink"
   xmlns:sodipodi="http://sodipodi.sourceforge.net/DTD/sodipodi-0.dtd"
   xmlns:inkscape="http://www.inkscape.org/namespaces/inkscape"
   width="210mm"
   height="297mm"
   viewBox="0 0 210 297"
   version="1.1"
   id="svg8"
   inkscape:version="0.92.4 (5da689c313, 2019-01-14)"
   sodipodi:docname="intersection.svg">
  <defs
     id="defs2" />
  <sodipodi:namedview
     id="base"
     pagecolor="#ffffff"
     bordercolor="#666666"
     borderopacity="1.0"
     inkscape:pageopacity="0.0"
     inkscape:pageshadow="2"
     inkscape:zoom="1.979899"
     inkscape:cx="423.07637"
     inkscape:cy="689.52846"
     inkscape:document-units="mm"
     inkscape:current-layer="layer1"
     showgrid="false"
     inkscape:window-width="1920"
     inkscape:window-height="1001"
     inkscape:window-x="-9"
     inkscape:window-y="-9"
     inkscape:window-maximized="1" />
  <metadata
     id="metadata5">
    <rdf:RDF>
      <cc:Work
         rdf:about="">
        <dc:format>image/svg+xml</dc:format>
        <dc:type
           rdf:resource="http://purl.org/dc/dcmitype/StillImage" />
        <dc:title />
      </cc:Work>
    </rdf:RDF>
  </metadata>
  <g
     inkscape:label="Layer 1"
     inkscape:groupmode="layer"
     id="layer1">
    <circle
       style="opacity:0.5;vector-effect:none;fill:none;fill-opacity:1;fill-rule:evenodd;stroke:#000000;stroke-width:0.26499999;stroke-linecap:butt;stroke-linejoin:miter;stroke-miterlimit:4;stroke-dasharray:none;stroke-dashoffset:0;stroke-opacity:1"
       id="path815"
       cx="125.1325"
       cy="116.8675"
       r="30" />
    <circle
       style="opacity:0.5;vector-effect:none;fill:none;fill-opacity:1;fill-rule:evenodd;stroke:#000000;stroke-width:0.265;stroke-linecap:butt;stroke-linejoin:miter;stroke-miterlimit:4;stroke-dasharray:none;stroke-dashoffset:0;stroke-opacity:1"
       id="path815-5"
       cx="80.1325"
       cy="116.8675"
       r="30.000002" />
    <rect
       style="opacity:0.5;fill:none;fill-opacity:1;fill-rule:evenodd;stroke:#1c0000;stroke-width:0.26499999;stroke-miterlimit:4;stroke-dasharray:none;stroke-opacity:1"
       id="rect2461"
       width="119.62946"
       height="75.784225"
       x="44.034225"
       y="79.474701" />
    <text
       xml:space="preserve"
       style="font-style:normal;font-weight:normal;font-size:3.88055563px;line-height:1.25;font-family:sans-serif;letter-spacing:0px;word-spacing:0px;fill:#000000;fill-opacity:1;stroke:none;stroke-width:0.26458332"
       x="52.785732"
       y="92.672447"
       id="text2465"><tspan
         sodipodi:role="line"
         id="tspan2463"
         x="52.785732"
         y="96.212799"
         style="stroke-width:0.26458332" /></text>
    <text
       xml:space="preserve"
       style="font-style:normal;font-weight:normal;font-size:3.88055563px;line-height:1.25;font-family:sans-serif;letter-spacing:0px;word-spacing:0px;fill:#000000;fill-opacity:1;stroke:none;stroke-width:0.26458332"
       x="147.39914"
       y="92.806076"
       id="text2469"><tspan
         sodipodi:role="line"
         id="tspan2467"
         x="147.39914"
         y="96.346428"
         style="stroke-width:0.26458332" /></text>
    <text
       xml:space="preserve"
       style="font-style:normal;font-weight:normal;font-size:3.88055563px;line-height:1.25;font-family:sans-serif;letter-spacing:0px;word-spacing:0px;fill:#000000;fill-opacity:1;stroke:none;stroke-width:0.26458332"
       x="46.9058"
       y="84.921631"
       id="text2473"><tspan
         sodipodi:role="line"
         id="tspan2471"
         x="46.9058"
         y="88.461983"
         style="stroke-width:0.26458332" /></text>
    <path
       style="opacity:0.5;fill:#800080;fill-opacity:1;fill-rule:evenodd;stroke:none;stroke-width:0.50587165;stroke-miterlimit:4;stroke-dasharray:none;stroke-opacity:1"
       d="m 385.09032,512.28399 c -12.23294,-14.82622 -20.82638,-34.6805 -23.8048,-54.99859 -1.05399,-7.19012 -1.20818,-23.113 -0.28366,-29.29443 2.42957,-16.24441 6.36538,-28.21034 13.53948,-41.16371 3.3076,-5.97212 7.95399,-12.78726 11.51294,-16.88673 l 2.0203,-2.32714 2.77792,3.55972 c 18.39954,23.57777 27.00454,52.4011 24.21185,81.10007 -1.26752,13.02573 -5.15076,26.86017 -10.79359,38.45335 -4.23953,8.71008 -8.55294,15.41297 -15.33515,23.8303 l -0.97331,1.20797 z"
       id="path2593"
       inkscape:connector-curvature="0"
       transform="scale(0.26458333)" />
  </g>
  <g
     inkscape:groupmode="layer"
     id="layer2"
     inkscape:label="Text"
     style="display:none">
    <text
       xml:space="preserve"
       style="font-style:normal;font-weight:normal;font-size:3.88055563px;line-height:1.25;font-family:sans-serif;letter-spacing:0px;word-spacing:0px;fill:#000000;fill-opacity:1;stroke:none;stroke-width:0.26458332"
       x="55.725697"
       y="91.603363"
       id="text2478"><tspan
         sodipodi:role="line"
         id="tspan2476"
         x="55.725697"
         y="91.603363"
         style="stroke-width:0.26458332">$A$</tspan></text>
    <text
       xml:space="preserve"
       style="font-style:normal;font-weight:normal;font-size:3.88055563px;line-height:1.25;font-family:sans-serif;letter-spacing:0px;word-spacing:0px;fill:#000000;fill-opacity:1;stroke:none;stroke-width:0.26458332"
       x="145.79553"
       y="91.870644"
       id="text2482"><tspan
         sodipodi:role="line"
         id="tspan2480"
         x="145.79553"
         y="91.870644"
         style="stroke-width:0.26458332">$B$</tspan></text>
    <text
       xml:space="preserve"
       style="font-style:normal;font-weight:normal;font-size:3.88055563px;line-height:1.25;font-family:sans-serif;letter-spacing:0px;word-spacing:0px;fill:#000000;fill-opacity:1;stroke:none;stroke-width:0.26458332"
       x="45.56945"
       y="83.986183"
       id="text2486"><tspan
         sodipodi:role="line"
         id="tspan2484"
         x="45.56945"
         y="83.986183"
         style="stroke-width:0.26458332">$S$</tspan></text>
  </g>
  <g
     rendltx:math="False"
     rendltx:newline="False"
     rendltx:fontsize="10.0"
     rendltx:depth="0.0"
     rendltx:scale="1.0"
     rendltx:packages="amsmath,amssymb"
     rendltx:preamble="C:\Users\Cameron\Desktop\mathpreamble.tex"
     id="ltx-render-layer"
     inkscape:groupmode="layer"
     inkscape:label="Rendered Latex">
    <g
       id="lx-text2478"
       transform="matrix(0.352778,0.000000,0.000000,0.352778,55.725697,91.603363)">
      <defs
         id="defs2516">
        <g
           id="g2514">
          <symbol
             id="lx-text2478-glyph0-0"
             overflow="visible">
            <path
               id="path2508"
               d=""
               style="stroke:none;" />
          </symbol>
          <symbol
             id="lx-text2478-glyph0-1"
             overflow="visible">
            <path
               id="path2511"
               d="M 7.1875 -0.203125 C 7.1875 -0.3125 7.09375 -0.3125 6.953125 -0.3125 C 6.34375 -0.3125 6.34375 -0.375 6.3125 -0.671875 L 5.703125 -6.890625 C 5.6875 -7.09375 5.6875 -7.140625 5.515625 -7.140625 C 5.359375 -7.140625 5.3125 -7.0625 5.25 -6.96875 L 1.78125 -1.140625 C 1.390625 -0.484375 1 -0.34375 0.5625 -0.3125 C 0.4375 -0.296875 0.34375 -0.296875 0.34375 -0.109375 C 0.34375 -0.046875 0.40625 0 0.484375 0 C 0.75 0 1.0625 -0.03125 1.328125 -0.03125 C 1.671875 -0.03125 2.015625 0 2.328125 0 C 2.390625 0 2.515625 0 2.515625 -0.1875 C 2.515625 -0.296875 2.4375 -0.3125 2.359375 -0.3125 C 2.140625 -0.328125 1.890625 -0.40625 1.890625 -0.65625 C 1.890625 -0.78125 1.953125 -0.890625 2.03125 -1.03125 C 2.109375 -1.140625 2.109375 -1.140625 2.796875 -2.296875 L 5.296875 -2.296875 C 5.3125 -2.09375 5.453125 -0.734375 5.453125 -0.640625 C 5.453125 -0.34375 4.9375 -0.3125 4.734375 -0.3125 C 4.59375 -0.3125 4.5 -0.3125 4.5 -0.109375 C 4.5 0 4.640625 0 4.640625 0 C 5.046875 0 5.46875 -0.03125 5.875 -0.03125 C 6.125 -0.03125 6.765625 0 7.015625 0 C 7.0625 0 7.1875 0 7.1875 -0.203125 Z M 5.265625 -2.609375 L 2.984375 -2.609375 L 4.9375 -5.90625 Z M 5.265625 -2.609375 "
               style="stroke:none;" />
          </symbol>
        </g>
      </defs>
      <g
         id="lx-text2478-surface1">
        <g
           id="g2520"
           style="fill:rgb(0%,0%,0%);fill-opacity:1;">
          <use
             id="use2518"
             y="0.0"
             x="0.0"
             xlink:href="#lx-text2478-glyph0-1" />
        </g>
      </g>
    </g>
    <g
       id="lx-text2482"
       transform="matrix(0.352778,0,0,0.352778,144.45918,92.004279)">
      <defs
         id="defs2532">
        <g
           id="g2530">
          <symbol
             id="lx-text2482-glyph0-0"
             overflow="visible"
             style="overflow:visible">
            <path
               id="path2524"
               d=""
               style="stroke:none"
               inkscape:connector-curvature="0" />
          </symbol>
          <symbol
             id="lx-text2482-glyph0-1"
             overflow="visible"
             style="overflow:visible">
            <path
               id="path2527"
               d="M 7,-2.15625 C 7,-2.875 6.421875,-3.453125 5.453125,-3.5625 6.484375,-3.75 7.53125,-4.484375 7.53125,-5.4375 c 0,-0.734375 -0.65625,-1.375 -1.84375,-1.375 H 2.328125 c -0.1875,0 -0.28125,0 -0.28125,0.203125 0,0.109375 0.09375,0.109375 0.28125,0.109375 0,0 0.203125,0 0.375,0.015625 0.171875,0.03125 0.265625,0.03125 0.265625,0.171875 0,0.03125 -0.015625,0.0625 -0.03125,0.1875 L 1.59375,-0.78125 C 1.5,-0.390625 1.46875,-0.3125 0.6875,-0.3125 c -0.171875,0 -0.265625,0 -0.265625,0.203125 C 0.421875,0 0.515625,0 0.6875,0 H 4.25 C 5.828125,0 7,-1.171875 7,-2.15625 Z m -0.375,-3.3125 c 0,0.875 -0.859375,1.8125 -2.0625,1.8125 H 3.09375 L 3.71875,-6.125 C 3.8125,-6.46875 3.828125,-6.5 4.25,-6.5 h 1.296875 c 0.875,0 1.078125,0.59375 1.078125,1.03125 z M 6.078125,-2.265625 C 6.078125,-1.28125 5.1875,-0.3125 4,-0.3125 H 2.65625 c -0.140625,0 -0.15625,0 -0.21875,0 -0.109375,-0.015625 -0.140625,-0.03125 -0.140625,-0.109375 0,-0.03125 0,-0.046875 0.0625,-0.21875 l 0.6875,-2.78125 h 1.875 c 0.953125,0 1.15625,0.734375 1.15625,1.15625 z m 0,0"
               style="stroke:none"
               inkscape:connector-curvature="0" />
          </symbol>
        </g>
      </defs>
      <g
         id="lx-text2482-surface1">
        <g
           id="g2536"
           style="fill:#000000;fill-opacity:1">
          <use
             id="use2534"
             y="0"
             x="0"
             xlink:href="#lx-text2482-glyph0-1"
             width="100%"
             height="100%" />
        </g>
      </g>
    </g>
    <g
       id="lx-text2486"
       transform="matrix(0.352778,0.000000,0.000000,0.352778,45.569450,83.986183)">
      <defs
         id="defs2548">
        <g
           id="g2546">
          <symbol
             id="lx-text2486-glyph0-0"
             overflow="visible">
            <path
               id="path2540"
               d=""
               style="stroke:none;" />
          </symbol>
          <symbol
             id="lx-text2486-glyph0-1"
             overflow="visible">
            <path
               id="path2543"
               d="M 5.515625 -2.34375 C 5.515625 -3.03125 5.171875 -3.375 5.03125 -3.515625 C 4.796875 -3.734375 4.640625 -3.78125 3.765625 -4 L 3.09375 -4.1875 C 2.828125 -4.28125 2.484375 -4.5625 2.484375 -5.09375 C 2.484375 -5.90625 3.28125 -6.75 4.234375 -6.75 C 5.046875 -6.75 5.65625 -6.3125 5.65625 -5.203125 C 5.65625 -4.890625 5.625 -4.703125 5.625 -4.640625 C 5.625 -4.640625 5.625 -4.546875 5.734375 -4.546875 C 5.84375 -4.546875 5.859375 -4.578125 5.890625 -4.75 L 6.4375 -6.921875 C 6.4375 -6.953125 6.40625 -7.03125 6.3125 -7.03125 C 6.265625 -7.03125 6.265625 -7.015625 6.140625 -6.875 L 5.65625 -6.3125 C 5.40625 -6.78125 4.890625 -7.03125 4.234375 -7.03125 C 2.96875 -7.03125 1.78125 -5.875 1.78125 -4.671875 C 1.78125 -3.875 2.296875 -3.40625 2.8125 -3.265625 L 3.875 -2.984375 C 4.25 -2.890625 4.796875 -2.734375 4.796875 -1.921875 C 4.796875 -1.03125 3.984375 -0.09375 3 -0.09375 C 2.359375 -0.09375 1.25 -0.3125 1.25 -1.546875 C 1.25 -1.78125 1.3125 -2.03125 1.3125 -2.078125 C 1.328125 -2.125 1.328125 -2.15625 1.328125 -2.15625 C 1.328125 -2.25 1.265625 -2.265625 1.21875 -2.265625 C 1.171875 -2.265625 1.140625 -2.25 1.109375 -2.21875 C 1.078125 -2.1875 0.515625 0.09375 0.515625 0.125 C 0.515625 0.171875 0.5625 0.21875 0.625 0.21875 C 0.671875 0.21875 0.6875 0.203125 0.8125 0.0625 L 1.296875 -0.5 C 1.71875 0.078125 2.40625 0.21875 2.984375 0.21875 C 4.34375 0.21875 5.515625 -1.109375 5.515625 -2.34375 Z M 5.515625 -2.34375 "
               style="stroke:none;" />
          </symbol>
        </g>
      </defs>
      <g
         id="lx-text2486-surface1">
        <g
           id="g2552"
           style="fill:rgb(0%,0%,0%);fill-opacity:1;">
          <use
             id="use2550"
             y="0.0"
             x="0.0"
             xlink:href="#lx-text2486-glyph0-1" />
        </g>
      </g>
    </g>
  </g>
</svg>
